<?xml version="1.0" standalone="no"?>
<!DOCTYPE svg PUBLIC "-//W3C//DTD SVG 20010904//EN"
 "http://www.w3.org/TR/2001/REC-SVG-20010904/DTD/svg10.dtd">
<svg version="1.0" xmlns="http://www.w3.org/2000/svg"
 width="2048.000000pt" height="763.000000pt" viewBox="0 0 2048.000000 763.000000"
 preserveAspectRatio="xMidYMid meet">

<g transform="translate(0.000000,763.000000) scale(0.100000,-0.100000)"
fill="#000000" stroke="none">
<path d="M15913 6598 c-18 -22 -53 -101 -53 -118 0 -9 -4 -20 -8 -25 -12 -14
-31 -99 -38 -170 -8 -81 -17 -95 -62 -95 -20 0 -54 -5 -75 -11 -33 -9 -42 -8
-58 7 -10 9 -19 23 -19 31 0 22 -64 156 -101 210 -18 26 -47 62 -64 80 l-32
31 -64 -15 c-35 -8 -74 -17 -85 -20 -33 -8 -47 -92 -41 -243 3 -69 8 -139 12
-157 7 -29 4 -32 -32 -48 -21 -9 -55 -25 -76 -36 -22 -10 -45 -19 -52 -19 -8
0 -28 21 -46 48 -44 65 -175 194 -226 222 -47 26 -52 25 -146 -35 -41 -26 -47
-34 -47 -64 0 -80 40 -231 86 -322 26 -53 26 -54 -48 -112 -52 -42 -77 -46
-102 -18 -40 44 -183 127 -282 164 -46 18 -58 13 -119 -48 -59 -58 -59 -58
-35 -126 31 -87 74 -163 136 -240 l52 -66 -49 -64 c-28 -35 -54 -68 -59 -73
-5 -5 -47 7 -97 27 -48 20 -106 41 -128 46 -69 16 -173 23 -192 13 -10 -6 -33
-40 -52 -76 -31 -60 -33 -68 -21 -91 27 -50 119 -153 176 -196 31 -24 68 -53
82 -65 l25 -21 -24 -61 c-37 -96 -47 -106 -95 -93 -55 15 -279 14 -334 -3 -48
-14 -47 -11 -71 -130 -9 -44 -8 -50 13 -73 49 -54 238 -162 302 -174 35 -7 41
-31 25 -115 l-15 -79 -104 -16 c-161 -25 -284 -73 -301 -117 -10 -26 -12 -106
-3 -139 12 -43 190 -108 333 -121 l74 -7 13 -60 c22 -106 19 -123 -23 -142
-146 -63 -224 -108 -293 -170 -33 -29 -33 -42 -4 -149 14 -50 15 -51 67 -63
46 -11 232 -11 342 1 28 3 32 -2 62 -62 43 -88 42 -100 -12 -135 -62 -39 -155
-132 -203 -203 l-40 -58 28 -58 c47 -95 53 -99 135 -91 38 4 84 10 100 15 17
5 50 14 75 21 25 7 69 23 98 35 29 13 58 21 65 18 10 -4 80 -95 100 -130 3 -6
-4 -21 -17 -35 -29 -31 -118 -165 -135 -204 -7 -16 -17 -37 -21 -45 -4 -9 -11
-35 -15 -59 -7 -42 -6 -43 53 -102 50 -50 63 -59 79 -51 10 6 49 22 87 38 63
25 172 92 237 145 l26 21 60 -45 c85 -65 88 -69 68 -107 -43 -83 -85 -241 -85
-318 l0 -58 74 -43 75 -43 58 40 c75 51 155 130 200 198 36 55 58 70 77 56 6
-5 37 -19 70 -32 l58 -23 -7 -51 c-11 -69 -11 -271 0 -324 8 -46 18 -53 106
-81 58 -18 83 -14 113 20 57 64 125 185 166 296 14 38 25 39 130 19 l65 -12 8
-59 c26 -196 73 -326 123 -345 32 -13 115 -13 148 -1 25 10 43 40 71 121 22
62 45 174 45 219 0 62 11 69 136 87 36 5 44 3 58 -17 9 -13 16 -33 16 -44 0
-12 4 -25 8 -30 5 -6 15 -26 22 -45 17 -44 83 -145 123 -187 17 -19 41 -33 53
-33 32 0 134 27 149 40 26 21 37 294 16 368 -6 18 -8 39 -5 46 5 13 139 76
161 76 7 0 24 -17 37 -39 65 -102 222 -241 273 -241 15 0 53 15 83 33 l55 34
-1 92 c-1 50 -6 104 -12 119 -5 15 -16 47 -23 72 -7 25 -21 60 -31 78 -10 18
-18 40 -18 50 0 18 111 112 132 112 7 0 27 -13 43 -28 70 -65 213 -145 292
-162 35 -8 39 -6 99 51 l62 60 -23 63 c-32 89 -82 178 -137 247 -27 33 -48 61
-48 64 0 13 105 135 116 135 6 0 36 -10 65 -23 30 -13 73 -29 97 -35 23 -7 59
-17 80 -23 20 -5 68 -9 106 -7 l68 3 39 70 39 71 -36 53 c-43 64 -140 163
-207 211 -55 39 -56 46 -13 145 l26 57 37 -6 c99 -15 220 -18 299 -6 46 6 84
13 84 14 0 1 9 26 20 56 40 109 28 137 -96 216 -56 36 -92 54 -202 100 -40 16
-42 19 -37 48 3 17 8 55 12 83 5 50 8 53 42 63 20 5 52 10 72 10 52 0 165 32
247 70 l72 33 0 82 0 81 -37 20 c-21 11 -47 25 -58 31 -11 6 -40 17 -65 23
-25 7 -56 16 -70 20 -14 5 -58 11 -99 14 -41 4 -80 11 -88 17 -7 7 -13 28 -13
48 0 20 -5 54 -10 76 -8 36 -7 42 13 57 12 10 28 18 36 18 18 0 156 66 197 94
17 12 48 36 69 55 34 29 38 38 37 75 -1 22 -10 63 -20 91 -17 48 -20 50 -67
59 -60 12 -249 12 -322 1 l-53 -8 -26 58 c-42 96 -42 107 4 137 64 43 160 137
209 205 51 72 51 71 -9 166 l-30 47 -66 0 c-36 0 -79 -4 -96 -9 -17 -5 -58
-17 -91 -26 -33 -10 -78 -26 -99 -36 -57 -27 -72 -24 -105 24 -16 24 -36 49
-45 56 -26 21 -19 46 28 101 47 55 101 148 127 217 8 24 18 46 22 50 18 17 2
50 -52 104 -57 57 -83 70 -96 49 -3 -5 -13 -10 -22 -10 -30 0 -162 -70 -234
-125 -41 -30 -78 -55 -82 -55 -14 0 -128 91 -134 106 -3 8 8 42 24 76 28 59
37 86 62 200 15 63 14 133 -1 145 -22 17 -129 73 -139 73 -37 0 -188 -136
-258 -232 -39 -55 -58 -67 -75 -51 -4 4 -38 20 -74 35 -51 20 -66 30 -65 45
18 140 21 209 13 283 -14 131 -10 124 -103 148 l-82 20 -24 -22 c-57 -51 -157
-222 -175 -298 -9 -38 -39 -52 -78 -39 -17 6 -48 11 -68 11 -21 0 -42 6 -47
13 -6 6 -15 50 -21 97 -12 95 -45 205 -78 265 l-22 40 -84 3 c-60 2 -88 -1
-95 -10z m358 -643 c534 -79 995 -352 1325 -785 179 -236 323 -569 365 -845
29 -197 33 -466 8 -625 -15 -93 -70 -323 -80 -334 -5 -6 -9 -20 -9 -32 0 -13
-4 -25 -9 -28 -5 -3 -12 -18 -16 -33 -3 -16 -33 -82 -65 -148 -193 -400 -523
-731 -921 -924 -158 -76 -272 -117 -424 -152 -255 -59 -647 -59 -882 0 -24 6
-60 15 -80 20 -21 4 -65 18 -98 30 -33 13 -69 25 -80 28 -11 3 -67 28 -124 54
-222 104 -407 234 -581 409 -95 95 -240 267 -240 285 0 2 -20 35 -44 72 -133
207 -232 472 -278 743 -17 96 -17 477 0 590 19 130 87 361 144 490 55 124 137
272 188 340 10 14 40 53 65 88 73 97 329 352 354 352 5 0 11 3 13 8 2 4 21 21
43 37 224 171 600 325 865 355 45 5 85 12 88 15 12 12 374 4 473 -10z"/>
<path d="M15747 5698 c-67 -10 -132 -22 -145 -28 -13 -5 -34 -10 -48 -10 -13
0 -32 -4 -42 -9 -9 -5 -37 -15 -62 -22 -25 -7 -49 -16 -54 -21 -6 -4 -16 -8
-23 -8 -20 0 -201 -87 -249 -121 -23 -16 -46 -29 -51 -29 -12 0 -150 -106
-229 -175 -71 -61 -180 -181 -224 -244 -13 -20 -31 -44 -40 -54 -9 -9 -23 -30
-31 -45 -7 -15 -26 -45 -41 -68 -33 -51 -118 -228 -118 -248 0 -8 -4 -17 -9
-20 -5 -3 -11 -16 -14 -28 -5 -22 -16 -61 -38 -138 -20 -68 -39 -186 -51 -313
-9 -101 -9 -158 1 -275 7 -81 16 -160 21 -177 5 -16 14 -55 20 -85 14 -67 29
-119 41 -142 5 -10 9 -27 9 -37 0 -11 5 -23 10 -26 6 -3 10 -13 10 -21 0 -23
67 -159 124 -254 118 -196 240 -334 436 -494 48 -39 202 -136 257 -161 189
-88 244 -108 413 -148 151 -37 195 -41 385 -41 188 1 274 10 415 47 136 35
187 53 285 97 28 12 61 28 75 34 14 6 61 32 105 57 233 136 435 334 596 584
54 84 99 177 153 318 30 77 80 281 92 377 12 94 10 351 -3 455 -18 139 -88
380 -136 473 -8 15 -21 41 -28 57 -75 165 -236 379 -387 513 -73 66 -225 182
-237 182 -3 0 -25 13 -48 28 -51 35 -230 122 -251 122 -8 0 -18 5 -21 10 -3 6
-17 10 -30 10 -13 0 -27 5 -30 10 -3 6 -17 10 -30 10 -13 0 -26 4 -29 9 -3 4
-22 11 -43 14 -21 4 -60 11 -88 18 -183 40 -413 46 -618 17z m653 -270 c52
-16 104 -33 115 -38 152 -64 202 -89 295 -149 47 -30 117 -80 155 -111 91 -75
215 -204 215 -223 0 -32 -29 -47 -475 -262 -88 -42 -201 -97 -251 -121 -93
-45 -121 -52 -155 -33 -31 16 -41 54 -50 194 -12 191 -27 394 -38 525 -16 186
-14 216 11 240 26 24 35 23 178 -22z m-616 17 c17 -13 18 -28 17 -151 -1 -75
-4 -141 -7 -145 -3 -5 -9 -71 -14 -146 -25 -371 -31 -440 -41 -470 -10 -32
-46 -63 -74 -63 -8 0 -81 32 -162 72 -255 123 -485 234 -565 273 -47 22 -86
48 -99 66 l-21 29 89 88 c121 121 286 248 378 292 17 8 42 22 57 32 14 10 31
18 37 18 6 0 30 8 54 19 94 42 273 99 312 100 11 0 28 -6 39 -14z m1626 -935
c11 -11 22 -32 25 -47 7 -33 13 -55 26 -103 33 -118 51 -314 43 -470 -5 -122
-9 -144 -48 -313 -41 -177 -58 -188 -173 -107 -39 28 -76 50 -81 50 -6 0 -12
4 -14 8 -3 9 -197 142 -206 142 -3 0 -14 7 -24 17 -10 9 -27 21 -37 27 -38 22
-277 189 -298 209 -27 24 -30 63 -8 94 14 21 701 493 735 506 27 10 40 7 60
-13z m-2592 -97 c86 -59 159 -109 162 -112 3 -3 17 -12 32 -20 15 -8 36 -22
45 -31 19 -16 152 -107 185 -125 10 -5 18 -13 18 -17 0 -5 7 -8 15 -8 8 0 15
-4 15 -10 0 -5 4 -10 10 -10 11 0 40 -22 83 -63 24 -23 28 -32 22 -59 -4 -18
-19 -41 -33 -53 -61 -48 -663 -455 -709 -478 -49 -26 -75 -7 -95 70 -4 18 -13
50 -18 71 -67 247 -67 551 1 812 47 178 53 179 267 33z m1034 -33 c14 -10 31
-33 38 -50 17 -42 3 -73 -66 -140 -73 -72 -87 -105 -88 -210 0 -93 10 -122 66
-185 37 -43 71 -62 144 -81 46 -12 63 -12 112 0 140 33 214 124 214 265 0 99
-24 152 -99 220 -50 46 -55 53 -56 96 -2 41 2 50 31 76 43 38 86 38 138 1 99
-72 165 -179 195 -315 30 -139 -46 -340 -167 -440 -95 -78 -199 -117 -314
-117 -192 0 -371 126 -447 312 -21 52 -25 81 -26 168 -2 90 2 114 22 165 13
33 30 67 38 76 7 8 13 20 13 26 0 13 112 123 142 140 34 18 82 16 110 -7z
m-124 -939 c28 -28 29 -33 41 -193 6 -89 14 -179 17 -198 4 -31 14 -161 31
-438 5 -87 4 -95 -18 -118 -23 -25 -53 -32 -64 -14 -3 6 -17 10 -30 10 -13 0
-34 4 -47 9 -13 5 -43 15 -68 22 -99 29 -339 139 -361 165 -6 8 -16 14 -21 14
-5 0 -50 31 -101 69 -113 85 -267 234 -267 259 0 31 39 57 205 137 207 99 540
262 585 285 49 26 64 24 98 -9z m679 9 c21 -10 108 -53 193 -93 557 -268 580
-280 580 -318 0 -18 -154 -173 -235 -236 -161 -126 -357 -227 -547 -282 -21
-6 -53 -15 -71 -21 -18 -5 -49 -10 -69 -10 -57 0 -62 21 -48 196 6 82 16 211
21 287 5 75 13 199 18 275 5 75 13 148 17 162 18 62 69 77 141 40z"/>
<path d="M1955 5184 c-79 -4 -308 -23 -363 -30 -24 -3 -52 -14 -63 -25 -19
-19 -19 -45 -19 -1034 0 -1002 0 -1015 20 -1035 18 -18 33 -20 160 -20 127 0
142 2 160 20 19 19 20 33 20 423 l0 404 173 -5 c197 -5 247 -11 258 -32 5 -8
22 -44 38 -80 154 -348 187 -423 212 -478 16 -35 29 -65 29 -67 0 -18 83 -174
95 -179 28 -10 305 -7 326 4 21 12 26 58 9 88 -11 20 -140 311 -140 316 0 2
-20 47 -45 100 -25 53 -45 99 -45 101 0 3 -13 34 -30 70 -16 36 -30 67 -30 69
0 2 -18 42 -40 89 -42 88 -47 107 -29 107 23 0 157 96 205 148 52 54 111 158
135 237 18 57 16 285 -4 355 -28 102 -52 151 -102 218 -81 109 -197 176 -380
222 -48 12 -413 22 -550 14z m475 -349 c143 -59 210 -158 210 -313 0 -157 -88
-264 -255 -308 -52 -14 -423 -20 -484 -8 l-31 7 0 313 0 313 33 6 c60 10 141
13 312 10 138 -2 178 -5 215 -20z"/>
<path d="M5185 4925 c-49 -13 -99 -24 -111 -24 -11 -1 -30 -11 -42 -24 -20
-21 -22 -34 -22 -155 l0 -132 -84 0 c-112 0 -116 -5 -116 -155 0 -104 2 -113
23 -133 20 -19 35 -22 100 -22 l77 0 0 -408 c0 -447 8 -549 54 -661 39 -98
105 -153 220 -188 97 -30 388 -17 466 21 24 11 25 16 28 116 5 181 3 183 -162
174 -173 -10 -222 10 -246 95 -6 21 -10 202 -10 444 l0 407 190 0 c241 0 230
-7 230 153 0 166 13 157 -225 157 l-194 0 -3 166 c-4 216 -2 214 -173 169z"/>
<path d="M12075 4936 c-27 -7 -77 -19 -110 -26 -65 -14 -96 -27 -107 -44 -4
-6 -8 -71 -8 -143 l0 -133 -84 0 c-111 0 -111 0 -111 -157 0 -152 1 -153 117
-153 l78 0 0 -387 c1 -506 9 -594 73 -722 62 -125 245 -188 472 -161 44 5 106
12 137 16 40 5 63 13 78 29 20 21 21 28 12 139 -5 67 -14 122 -21 129 -9 8
-51 11 -144 9 -153 -4 -202 8 -229 54 -29 49 -38 184 -38 546 l0 348 195 0
c248 0 235 -8 235 158 0 102 -3 121 -18 135 -15 14 -49 17 -213 19 l-194 3 -3
164 c-1 101 -7 170 -13 178 -14 16 -38 16 -104 -1z"/>
<path d="M3795 4620 c-127 -20 -239 -67 -318 -133 -51 -42 -137 -155 -137
-179 0 -8 -4 -18 -9 -23 -12 -14 -46 -129 -62 -210 -18 -92 -18 -407 0 -500
31 -167 84 -293 161 -383 45 -52 145 -115 235 -147 132 -47 438 -47 570 0 221
79 342 238 391 515 20 115 20 418 -1 520 -26 130 -33 152 -71 229 -66 134
-201 249 -329 282 -19 5 -52 14 -72 19 -54 15 -286 21 -358 10z m290 -324 c91
-28 154 -100 184 -212 30 -113 30 -425 0 -537 -44 -161 -136 -227 -319 -227
-117 0 -180 21 -241 80 -62 60 -87 132 -100 287 -24 287 23 503 126 575 78 55
232 70 350 34z"/>
<path d="M6475 4615 c-66 -7 -154 -18 -195 -24 -41 -6 -96 -14 -122 -17 -74
-10 -80 -23 -76 -158 4 -160 -9 -151 219 -137 383 25 411 25 467 7 89 -30 126
-97 120 -216 l-3 -65 -150 -13 c-382 -32 -473 -49 -572 -109 -80 -48 -99 -68
-136 -142 -42 -85 -59 -205 -45 -319 25 -212 120 -341 289 -392 70 -22 246
-28 322 -11 23 5 69 15 102 22 33 7 101 27 151 44 l90 32 35 -25 c45 -32 92
-52 159 -68 47 -11 58 -11 78 2 l23 15 -4 617 c-3 682 -1 658 -70 772 -78 130
-210 190 -432 195 -71 2 -184 -2 -250 -10z m413 -1067 l-3 -183 -70 -17 c-90
-23 -256 -48 -312 -48 -114 0 -173 70 -173 205 0 104 44 171 128 195 44 13
210 27 340 29 l92 1 -2 -182z"/>
<path d="M9210 4620 c-88 -9 -180 -21 -321 -42 -112 -17 -116 -22 -108 -168 7
-144 12 -150 120 -139 114 12 407 29 474 28 88 -1 137 -23 183 -83 19 -25 22
-41 22 -121 l0 -91 -152 -12 c-360 -29 -431 -41 -537 -93 -154 -76 -214 -191
-213 -409 1 -166 40 -276 128 -364 85 -85 171 -116 326 -116 59 0 131 5 160
10 130 26 230 53 297 82 l44 18 31 -23 c43 -32 100 -57 164 -72 62 -15 83 -8
101 32 15 32 15 990 0 1121 -26 241 -107 354 -295 418 -66 22 -100 27 -209 30
-71 1 -168 -1 -215 -6z m370 -1074 l0 -184 -72 -16 c-220 -49 -338 -57 -397
-26 -70 35 -106 153 -77 252 17 60 52 99 110 123 41 17 182 31 344 34 l92 1 0
-184z"/>
<path d="M10735 4615 c-164 -31 -235 -65 -330 -160 -138 -138 -195 -325 -195
-636 0 -420 120 -661 377 -762 112 -44 378 -63 524 -38 30 6 88 15 129 21 130
20 170 31 180 50 14 26 12 214 -2 245 -15 34 -46 40 -127 27 -288 -49 -463
-54 -551 -14 -43 19 -103 74 -126 117 -38 69 -48 139 -48 350 -1 190 1 217 21
281 42 134 109 193 243 214 77 13 92 12 464 -32 l98 -11 19 24 c15 20 19 42
19 135 0 133 -2 135 -110 153 -41 7 -95 17 -120 22 -153 30 -345 36 -465 14z"/>
<path d="M8330 4593 c-70 -12 -229 -83 -302 -134 -14 -11 -29 -19 -32 -19 -3
0 -6 24 -6 53 0 40 -5 59 -20 75 -19 21 -30 22 -159 22 -121 0 -140 -2 -154
-18 -16 -17 -17 -84 -17 -760 0 -660 2 -742 16 -756 12 -13 41 -16 152 -16 75
0 142 4 148 8 32 21 34 52 34 555 l0 504 53 36 c103 71 264 137 334 137 23 0
42 8 58 25 24 23 25 30 25 137 0 156 -13 171 -130 151z"/>
<path d="M5476 2133 c-10 -43 -20 -85 -22 -93 -3 -8 -14 -60 -26 -115 -11 -55
-24 -120 -30 -145 -5 -25 -13 -67 -18 -95 -6 -27 -21 -99 -35 -160 -14 -60
-34 -155 -45 -210 -11 -55 -23 -108 -26 -117 -4 -15 1 -18 35 -18 l39 0 22 98
c11 53 25 115 30 137 5 22 16 74 24 115 9 41 27 129 42 195 26 121 48 222 78
370 9 44 18 88 20 98 3 14 -3 17 -33 17 l-38 0 -17 -77z"/>
<path d="M6566 2198 c-3 -7 -7 -29 -10 -48 -6 -35 -9 -48 -41 -190 -22 -98
-74 -343 -84 -400 -12 -61 -57 -263 -74 -327 l-14 -53 37 0 c36 0 38 2 50 48
21 81 20 79 38 55 9 -12 25 -34 35 -48 51 -71 205 -92 307 -40 137 69 220 224
220 410 0 165 -51 247 -176 283 -54 16 -75 15 -139 -3 -33 -10 -71 -31 -100
-57 -25 -22 -48 -38 -51 -35 -5 5 6 69 26 157 4 19 13 58 18 85 6 28 17 78 26
113 l14 62 -39 0 c-23 0 -41 -5 -43 -12z m322 -412 c22 -20 44 -54 51 -75 39
-133 -30 -372 -127 -438 -68 -45 -164 -58 -222 -28 -133 69 -130 354 6 505 56
61 103 81 186 77 63 -2 70 -5 106 -41z"/>
<path d="M4945 2149 c-193 -43 -320 -136 -400 -293 -43 -85 -55 -130 -62 -239
-8 -122 31 -233 110 -316 91 -94 191 -134 341 -133 56 0 120 5 144 12 39 12
42 16 42 47 0 32 -1 33 -27 26 -16 -5 -84 -8 -153 -8 -116 0 -129 2 -181 27
-146 72 -214 213 -188 393 44 302 309 480 609 409 97 -23 103 -23 114 8 5 15
7 30 5 33 -3 3 -41 14 -84 25 -82 21 -199 25 -270 9z"/>
<path d="M7731 2093 c-6 -27 -25 -113 -42 -193 -17 -80 -35 -163 -40 -185 -5
-22 -14 -62 -19 -90 -5 -27 -14 -68 -19 -90 -27 -124 -63 -294 -68 -323 -6
-32 -5 -32 34 -32 l40 0 22 103 c30 137 49 223 62 273 l11 41 122 6 c114 5
213 28 250 58 6 5 26 20 44 35 125 100 128 320 5 397 -58 36 -119 47 -261 47
l-130 0 -11 -47z m311 -40 c70 -27 98 -72 98 -156 0 -83 -62 -167 -146 -200
-23 -9 -92 -19 -154 -23 l-113 -7 5 34 c6 37 30 158 54 259 8 36 17 75 20 88
4 21 9 22 99 22 65 0 108 -5 137 -17z"/>
<path d="M8554 1881 c-23 -10 -60 -38 -83 -62 l-41 -43 0 52 0 52 -40 0 c-38
0 -40 -1 -40 -32 0 -18 -7 -67 -16 -108 -8 -41 -20 -100 -26 -130 -18 -100
-70 -349 -83 -403 -7 -26 -6 -27 33 -27 38 0 40 1 50 43 12 51 27 122 42 202
33 170 67 266 115 323 41 49 81 65 152 65 l63 0 6 34 c4 19 4 37 1 40 -16 15
-95 12 -133 -6z"/>
<path d="M9005 1886 c-108 -26 -199 -96 -247 -191 -87 -168 -77 -343 27 -449
59 -61 102 -78 200 -78 130 1 236 59 303 166 146 234 82 506 -131 555 -59 13
-87 13 -152 -3z m191 -84 c69 -52 99 -169 76 -294 -32 -170 -143 -278 -284
-278 -98 0 -165 50 -193 144 -18 59 -19 93 -4 172 22 120 76 204 163 255 47
27 58 30 131 27 65 -3 86 -7 111 -26z"/>
<path d="M9745 1886 c-171 -54 -275 -211 -275 -414 0 -117 39 -199 118 -254
43 -30 53 -33 127 -33 91 0 131 13 193 63 24 19 46 32 49 28 8 -8 -26 -144
-49 -193 -11 -23 -37 -58 -58 -77 -84 -76 -263 -87 -387 -24 l-32 16 -7 -34
c-3 -19 -3 -38 0 -42 36 -35 259 -53 355 -28 137 35 197 114 245 324 40 172
40 171 76 347 5 22 13 60 19 85 14 61 41 180 47 208 4 19 0 22 -31 22 -29 0
-37 -5 -45 -26 -6 -14 -10 -34 -10 -44 0 -10 -5 -31 -11 -47 l-11 -28 -20 40
c-27 53 -46 73 -82 89 -87 39 -141 44 -211 22z m157 -65 c38 -14 83 -63 101
-109 33 -82 17 -238 -33 -327 -53 -94 -124 -139 -219 -139 -110 0 -168 48
-192 157 -14 67 -3 156 33 247 24 61 92 140 141 164 35 17 132 21 169 7z"/>
<path d="M10570 1880 c-25 -12 -65 -40 -89 -63 l-43 -42 6 53 7 52 -39 0 -40
0 -5 -52 c-3 -29 -21 -129 -41 -223 -20 -93 -41 -192 -46 -220 -4 -27 -16 -84
-24 -125 -9 -41 -16 -76 -16 -77 0 -2 18 -3 39 -3 35 0 40 3 45 28 8 42 56
271 68 327 33 153 100 253 183 274 25 6 62 8 83 5 39 -6 39 -6 45 32 4 21 4
40 2 42 -15 15 -95 10 -135 -8z"/>
<path d="M11010 1889 c-90 -25 -183 -98 -228 -181 -59 -105 -79 -274 -46 -371
20 -58 81 -122 142 -149 38 -16 67 -20 147 -19 59 0 117 6 140 15 35 12 40 18
43 49 l3 35 -57 -19 c-69 -23 -187 -25 -236 -5 -82 35 -128 111 -128 212 l0
54 265 0 265 0 0 98 c0 63 -6 115 -16 145 -36 106 -172 169 -294 136z m185
-100 c28 -28 37 -46 45 -94 5 -33 7 -75 4 -92 l-6 -33 -209 0 c-117 0 -210 4
-214 9 -10 18 36 119 75 164 60 67 109 89 198 85 67 -3 74 -6 107 -39z"/>
<path d="M11645 1889 c-114 -26 -185 -96 -185 -181 0 -66 24 -98 119 -159 113
-72 121 -78 142 -113 44 -72 1 -164 -90 -195 -53 -18 -154 -14 -213 9 -57 22
-68 17 -68 -31 0 -22 6 -27 52 -38 28 -8 93 -14 143 -14 82 0 99 4 151 29 44
22 67 42 92 79 31 45 34 56 30 107 -6 75 -34 111 -152 188 -107 69 -126 92
-126 148 0 44 31 85 75 102 40 15 176 12 205 -5 37 -21 47 -18 58 15 13 36 9
39 -72 56 -70 15 -104 16 -161 3z"/>
<path d="M12265 1886 c-78 -19 -126 -46 -180 -101 -111 -111 -156 -301 -104
-439 24 -65 90 -137 146 -161 56 -25 184 -22 246 4 79 34 135 81 175 145 68
110 92 218 73 325 -22 121 -96 205 -204 230 -59 13 -87 13 -152 -3z m193 -87
c47 -38 71 -88 78 -165 12 -133 -25 -245 -110 -328 -57 -58 -103 -76 -187 -76
-113 0 -199 98 -199 224 0 154 76 300 185 356 59 30 189 24 233 -11z"/>
<path d="M5715 1858 c-28 -125 -49 -221 -56 -258 -4 -25 -13 -67 -19 -95 -32
-141 -22 -221 37 -279 44 -44 80 -58 152 -58 78 -1 140 24 191 77 19 19 37 35
41 35 5 0 5 -22 2 -50 l-6 -50 35 0 c35 0 35 0 47 63 7 34 16 80 21 102 29
134 81 389 98 483 l9 52 -37 0 c-37 0 -37 0 -49 -57 -7 -32 -18 -85 -26 -118
-7 -33 -18 -87 -25 -120 -38 -190 -103 -300 -199 -341 -55 -23 -138 -18 -176
11 -59 44 -64 122 -20 320 17 74 27 126 43 215 6 30 13 63 17 73 6 14 1 17
-34 17 -34 0 -41 -4 -46 -22z"/>
</g>
</svg>
