<?xml version="1.0" standalone="no"?>
<!DOCTYPE svg PUBLIC "-//W3C//DTD SVG 20010904//EN"
 "http://www.w3.org/TR/2001/REC-SVG-20010904/DTD/svg10.dtd">
<svg version="1.0" xmlns="http://www.w3.org/2000/svg"
 width="1324.000000pt" height="229.000000pt" viewBox="0 0 1324.000000 229.000000"
 preserveAspectRatio="xMidYMid meet">

<g transform="translate(0.000000,229.000000) scale(0.100000,-0.100000)"
fill="#000000" stroke="none">
<path d="M5761 2216 c-6 -7 -18 -44 -26 -81 -7 -37 -16 -69 -18 -71 -3 -3 -21
-7 -40 -11 -36 -5 -37 -5 -60 48 -32 71 -62 102 -90 93 -38 -11 -48 -35 -47
-104 3 -89 4 -87 -32 -99 -31 -11 -33 -10 -88 49 -31 33 -59 60 -62 60 -16 0
-57 -24 -62 -36 -3 -7 2 -39 11 -71 23 -85 22 -105 -7 -121 -23 -13 -29 -12
-79 22 -114 77 -171 22 -96 -93 37 -56 38 -76 7 -105 -17 -15 -23 -14 -75 4
-79 28 -111 26 -125 -5 -18 -40 -16 -46 45 -102 54 -50 56 -54 47 -85 l-10
-33 -83 0 c-71 0 -85 -3 -97 -20 -8 -11 -13 -29 -12 -40 4 -23 61 -64 101 -72
38 -8 54 -42 36 -79 -11 -22 -24 -30 -69 -39 -81 -16 -100 -29 -100 -70 0 -33
2 -35 52 -50 28 -8 61 -15 73 -15 31 0 45 -19 45 -60 0 -34 -4 -38 -50 -60
-67 -31 -93 -60 -85 -93 9 -33 30 -40 119 -35 l71 3 9 -37 c9 -36 8 -39 -37
-79 -61 -53 -70 -71 -55 -103 14 -31 47 -34 124 -10 58 19 79 15 95 -19 8 -19
4 -32 -25 -82 -41 -67 -44 -94 -16 -120 20 -18 22 -18 70 5 28 13 57 32 67 42
21 23 32 23 66 -5 l28 -22 -21 -57 c-26 -75 -26 -114 1 -128 33 -18 63 -4 112
50 49 54 61 58 95 34 20 -14 22 -21 16 -64 -4 -27 -3 -65 0 -84 5 -28 12 -36
37 -41 39 -9 60 10 98 86 25 49 30 54 56 51 38 -4 55 -19 55 -47 0 -13 8 -46
17 -74 l16 -52 40 3 c38 3 41 6 53 43 6 22 15 58 20 80 8 37 12 40 46 43 36 3
38 2 67 -56 36 -71 53 -86 86 -78 34 9 47 45 43 119 -2 49 1 61 17 73 32 23
49 16 107 -41 30 -30 60 -55 65 -55 6 0 21 9 34 19 23 18 23 20 10 77 -22 94
-20 116 10 133 25 14 29 13 63 -13 20 -15 51 -33 69 -41 30 -12 37 -12 55 1
28 20 27 50 -3 99 -48 79 -49 80 -30 109 20 30 46 33 98 11 55 -23 94 -19 113
10 15 23 15 27 -1 53 -10 15 -35 42 -57 60 -41 36 -46 56 -23 90 14 18 22 21
60 15 67 -9 114 3 126 33 13 36 0 54 -68 89 -55 29 -58 32 -58 69 0 39 0 39
55 53 102 25 111 31 108 72 -3 34 -6 37 -58 53 -30 9 -67 19 -81 22 -20 4 -28
13 -31 34 -6 43 -1 50 56 77 72 34 91 56 79 92 -8 22 -18 29 -49 34 -21 4 -59
5 -84 2 -42 -5 -47 -3 -58 21 -18 41 -16 49 34 90 60 50 72 77 50 111 -20 30
-38 31 -116 4 -65 -22 -79 -19 -101 24 -9 15 -5 27 18 61 48 69 56 95 38 122
-22 33 -54 30 -115 -11 -61 -41 -76 -43 -106 -14 l-23 22 20 51 c27 71 25 112
-5 131 -32 21 -50 11 -109 -56 l-44 -52 -34 19 -34 20 0 78 c0 65 -3 80 -19
92 -43 31 -74 7 -117 -91 -17 -37 -24 -45 -47 -45 -43 0 -53 13 -68 85 -8 38
-19 74 -25 82 -15 17 -63 17 -78 -1z m191 -247 c120 -24 219 -67 313 -134 141
-101 259 -260 312 -419 24 -74 27 -95 27 -246 1 -146 -2 -174 -22 -240 -45
-144 -121 -260 -242 -373 -87 -80 -173 -132 -293 -174 -89 -32 -289 -43 -401
-23 -199 36 -403 174 -526 357 -93 139 -149 341 -136 494 41 500 494 855 968
758z"/>
<path d="M5683 1860 c-133 -24 -264 -93 -371 -194 -133 -126 -201 -274 -210
-458 -11 -229 58 -402 221 -554 84 -79 174 -130 287 -165 94 -29 260 -32 360
-6 218 57 416 234 488 437 71 198 60 383 -33 570 -83 165 -245 294 -443 351
-79 23 -225 32 -299 19z m35 -107 c11 -22 -16 -362 -31 -380 -5 -7 -17 -13
-25 -13 -9 0 -90 36 -179 80 -125 62 -163 85 -163 99 0 28 110 123 191 166
117 62 191 79 207 48z m247 6 c117 -32 315 -170 315 -219 0 -14 -39 -37 -157
-95 -178 -86 -195 -92 -211 -72 -12 14 -42 348 -34 379 5 21 30 23 87 7z
m-619 -432 c49 -34 115 -80 146 -101 62 -42 77 -68 56 -93 -7 -9 -49 -40 -93
-69 -44 -29 -106 -71 -139 -93 -32 -23 -67 -41 -77 -41 -39 0 -72 209 -50 323
20 107 31 137 50 137 9 0 58 -28 107 -63z m1051 6 c37 -124 13 -403 -35 -403
-10 0 -85 46 -167 103 -183 125 -184 127 -78 201 39 28 105 74 145 103 98 69
113 69 135 -4z m-653 -9 c22 -21 20 -47 -5 -70 -31 -27 -51 -81 -44 -115 4
-16 21 -40 38 -55 26 -22 38 -25 74 -21 49 5 75 25 93 68 16 38 7 71 -32 115
-27 30 -30 39 -22 62 14 41 54 41 96 -1 61 -60 73 -149 34 -234 -88 -188 -376
-120 -376 90 0 55 19 98 63 145 34 35 57 40 81 16z m-40 -407 c3 -12 11 -95
17 -185 10 -143 10 -165 -3 -179 -20 -19 -74 -6 -185 48 -97 46 -218 153 -207
182 6 15 220 128 309 163 36 14 63 3 69 -29z m420 -41 c121 -58 156 -79 156
-94 0 -45 -140 -152 -264 -201 -84 -34 -131 -39 -140 -16 -8 21 22 344 35 374
13 31 22 28 213 -63z"/>
<path d="M7097 2217 c-9 -24 -8 -2028 2 -2087 l7 -45 7 70 c9 88 7 2009 -2
2050 -5 25 -8 27 -14 12z"/>
<path d="M8540 1536 c0 -230 2 -266 15 -266 9 0 15 9 15 25 0 32 15 32 43 -1
33 -38 100 -44 146 -12 56 37 74 77 73 163 -2 111 -33 163 -109 179 -35 8
-123 -24 -123 -44 0 -7 -6 -10 -12 -8 -9 3 -15 39 -18 113 -3 74 -9 110 -17
113 -10 3 -13 -54 -13 -262z m198 54 c42 -26 62 -74 62 -151 0 -77 -22 -126
-67 -147 -30 -14 -38 -15 -75 -2 -59 21 -83 65 -83 150 0 79 18 126 59 151 40
24 63 24 104 -1z"/>
<path d="M7980 1561 c0 -228 5 -291 21 -291 5 0 9 117 9 260 0 224 -2 260 -15
260 -13 0 -15 -32 -15 -229z"/>
<path d="M9514 1776 c-8 -20 0 -493 9 -502 4 -4 10 -4 13 -1 8 7 12 333 6 445
-3 66 -15 91 -28 58z"/>
<path d="M11150 1680 c0 -60 -2 -110 -5 -110 -2 0 -21 11 -41 25 -41 28 -102
33 -144 12 -13 -7 -35 -28 -48 -47 -21 -31 -23 -44 -20 -122 3 -99 19 -131 82
-162 41 -20 89 -16 122 10 19 15 19 15 -1 8 -72 -26 -132 -6 -159 51 -20 41
-21 144 -2 189 32 76 114 100 166 48 48 -48 60 -119 36 -210 -10 -41 -10 -52
-1 -52 7 0 16 -11 19 -25 4 -14 11 -23 16 -20 6 4 10 107 10 261 0 219 -2 254
-15 254 -12 0 -15 -19 -15 -110z"/>
<path d="M11867 1783 c-7 -7 2 -504 9 -512 13 -14 17 35 18 260 1 240 -3 277
-27 252z"/>
<path d="M7646 1745 c-100 -36 -156 -119 -156 -235 0 -107 52 -191 140 -227
63 -25 140 -29 185 -8 28 13 25 13 -60 14 -74 1 -97 5 -130 24 -50 29 -81 74
-95 142 -15 71 -5 134 31 189 41 65 87 86 194 86 47 0 85 4 85 9 0 24 -133 28
-194 6z"/>
<path d="M9162 1513 c2 -178 6 -237 16 -241 9 -3 12 20 12 91 0 53 3 102 6
111 5 12 21 16 69 16 98 0 155 48 155 133 0 53 -25 96 -65 113 -20 8 -68 14
-115 14 l-80 0 2 -237z m177 203 c67 -35 69 -160 2 -184 -44 -17 -123 -23
-137 -11 -15 12 -20 161 -8 193 8 21 104 22 143 2z"/>
<path d="M188 1633 c-31 -2 -61 -10 -67 -17 -8 -9 -10 -132 -9 -402 l3 -389
58 -3 c31 -2 58 -2 59 0 0 2 4 75 7 163 l6 160 78 -1 c52 -1 83 -6 92 -15 7
-8 39 -75 71 -149 31 -74 62 -141 67 -147 9 -13 137 -19 137 -7 0 7 -73 178
-109 254 -42 87 -40 103 12 137 100 67 119 237 36 342 -47 59 -98 74 -249 76
-74 1 -161 0 -192 -2z m286 -117 c52 -22 76 -60 76 -122 0 -41 -5 -59 -25 -82
-37 -44 -69 -53 -181 -50 l-99 3 -3 127 c-2 114 -1 127 15 131 42 11 185 6
217 -7z"/>
<path d="M9735 1618 c-22 -5 -44 -14 -50 -20 -7 -8 -3 -9 15 -4 89 24 138 14
159 -30 15 -33 14 -91 -1 -97 -10 -4 -10 -6 0 -6 15 -1 17 -78 3 -114 -8 -19
-6 -27 5 -31 8 -3 14 -15 14 -26 0 -11 5 -20 10 -20 6 0 10 50 10 130 0 131
-11 187 -41 205 -24 15 -84 21 -124 13z"/>
<path d="M10412 1620 c-19 -4 -39 -13 -45 -20 -9 -9 -4 -10 23 -4 66 16 111
10 135 -18 20 -23 23 -38 23 -124 0 -54 -3 -105 -8 -115 -7 -12 -5 -19 5 -23
8 -3 15 -12 15 -21 0 -8 5 -15 10 -15 13 0 13 250 0 284 -17 47 -90 72 -158
56z"/>
<path d="M8147 1613 c-11 -10 -8 -224 3 -264 20 -70 96 -108 156 -76 29 15 29
15 -18 10 -42 -5 -50 -2 -76 24 -27 26 -31 38 -37 116 -4 48 -5 94 -1 103 7
19 -4 94 -14 94 -3 0 -10 -3 -13 -7z"/>
<path d="M8386 1598 c-3 -13 -6 -70 -6 -128 0 -69 -5 -114 -14 -131 -12 -24
-12 -26 5 -22 14 4 19 0 19 -15 0 -12 4 -23 9 -26 9 -6 21 119 21 220 0 102
-18 158 -34 102z"/>
<path d="M10020 1610 c-10 -7 13 -10 78 -10 70 0 94 -3 98 -14 3 -8 -40 -73
-100 -153 -58 -77 -106 -145 -106 -151 0 -9 36 -12 125 -12 77 0 125 4 125 10
0 6 -40 10 -101 10 -92 0 -101 2 -97 18 3 9 49 75 102 145 53 71 96 136 94
145 -3 14 -19 17 -103 20 -55 1 -107 -2 -115 -8z"/>
<path d="M11353 1600 c-43 -26 -65 -71 -71 -145 -7 -88 21 -148 80 -175 50
-23 91 -24 133 -5 29 13 28 13 -21 8 -100 -11 -155 40 -159 147 -2 71 9 111
42 144 35 36 68 42 109 22 35 -16 51 -44 61 -103 5 -29 3 -33 -18 -34 -21 -1
-20 -2 6 -8 39 -9 45 -6 45 27 -1 45 -36 109 -69 126 -41 22 -99 20 -138 -4z"/>
<path d="M12065 1609 c-14 -6 -3 -7 33 -3 65 7 106 -8 122 -45 7 -17 10 -68 7
-134 -2 -59 0 -107 5 -107 4 0 8 -11 8 -25 0 -14 5 -25 11 -25 7 0 9 48 7 151
l-3 151 -28 24 c-23 20 -39 24 -85 23 -31 0 -66 -5 -77 -10z"/>
<path d="M1525 1536 c-39 -11 -40 -12 -45 -66 -5 -53 -6 -55 -37 -58 -25 -3
-34 -9 -39 -28 -11 -45 3 -72 39 -76 l32 -3 5 -195 c5 -161 9 -202 24 -233 26
-52 65 -70 152 -70 107 1 116 5 112 61 l-3 47 -67 3 c-46 2 -70 8 -80 19 -10
12 -13 59 -13 187 l0 171 60 3 c104 4 107 6 103 60 l-3 47 -75 3 c-44 2 -78 8
-82 15 -4 7 -8 38 -8 70 0 64 -2 65 -75 43z"/>
<path d="M4205 1536 c-39 -11 -40 -12 -45 -66 -5 -54 -6 -55 -40 -60 -35 -5
-35 -5 -35 -55 0 -49 1 -50 32 -53 42 -4 42 -6 45 -217 4 -247 25 -279 181
-278 88 1 107 11 107 57 0 48 -10 55 -80 58 -57 3 -66 6 -77 28 -18 35 -18
339 0 344 6 2 44 8 82 13 63 7 70 10 73 32 2 12 1 34 -2 47 -6 23 -11 24 -80
24 -84 0 -86 2 -86 80 0 34 -4 50 -16 54 -9 3 -16 6 -17 5 -1 0 -20 -6 -42
-13z"/>
<path d="M9745 1463 c-77 -19 -113 -64 -101 -128 11 -58 82 -89 145 -63 l32
13 -56 0 c-48 0 -60 4 -76 24 -45 56 -9 121 81 145 39 10 46 14 25 14 -16 0
-39 -2 -50 -5z"/>
<path d="M10427 1460 c-76 -14 -107 -47 -107 -111 0 -58 80 -104 140 -80 23 9
21 10 -18 10 -49 1 -92 35 -92 73 0 42 36 86 75 94 19 3 38 10 41 15 3 5 4 8
2 8 -2 -1 -20 -5 -41 -9z"/>
<path d="M12070 1453 c-8 -3 -27 -17 -42 -31 -32 -30 -38 -84 -13 -119 19 -28
77 -46 115 -38 46 10 43 20 -5 17 -36 -3 -48 0 -69 22 -48 47 -22 125 47 145
28 8 29 9 7 9 -14 0 -32 -2 -40 -5z"/>
<path d="M965 1411 c-105 -27 -147 -84 -167 -222 -9 -61 -8 -99 0 -155 26
-163 96 -224 260 -224 175 0 237 55 263 234 24 162 -21 298 -114 345 -51 25
-184 38 -242 22z m160 -105 c50 -21 68 -64 72 -171 5 -116 -10 -171 -56 -202
-72 -49 -182 -18 -208 57 -18 53 -16 202 4 251 28 71 107 98 188 65z"/>
<path d="M1981 1410 c-35 -5 -68 -13 -73 -18 -5 -5 -8 -27 -6 -48 l3 -39 130
4 c115 3 133 1 153 -15 24 -20 42 -96 25 -107 -5 -3 -58 -11 -119 -17 -138
-15 -186 -35 -213 -89 -42 -82 -16 -210 51 -251 42 -25 132 -27 228 -4 64 16
71 16 105 0 72 -34 70 -39 70 229 0 220 -2 243 -20 280 -30 60 -72 79 -180 81
-49 2 -119 -1 -154 -6z m227 -332 c16 -16 16 -133 0 -146 -22 -17 -151 -34
-180 -23 -49 18 -60 108 -18 146 31 28 176 45 198 23z"/>
<path d="M3048 1410 c-37 -4 -72 -11 -78 -15 -5 -3 -10 -26 -10 -51 l0 -45
130 7 c127 7 131 6 155 -16 18 -17 25 -34 25 -62 0 -22 -5 -40 -12 -43 -7 -2
-63 -10 -123 -18 -128 -16 -160 -29 -192 -76 -18 -27 -23 -48 -23 -100 0 -79
20 -126 69 -158 42 -28 133 -31 229 -7 60 15 67 15 99 0 53 -25 71 -21 79 18
3 19 4 129 2 243 -4 235 -13 270 -77 307 -40 23 -161 30 -273 16z m220 -402
c3 -86 10 -79 -92 -97 -81 -15 -83 -14 -111 14 -33 32 -33 84 -1 122 19 22 35
29 82 34 33 4 73 6 89 5 l30 -1 3 -77z"/>
<path d="M3686 1410 c-126 -32 -172 -122 -164 -325 5 -142 28 -195 102 -240
48 -29 53 -30 180 -30 160 0 178 7 174 68 -3 38 -5 42 -28 40 -223 -20 -252
-14 -286 53 -26 54 -27 222 -1 275 31 63 54 68 277 56 34 -2 35 -1 38 41 3 38
1 43 -25 53 -39 15 -220 20 -267 9z"/>
<path d="M2517 1403 c-4 -3 -7 -136 -7 -295 l0 -288 60 0 60 0 2 128 c2 70 1
158 0 195 -3 65 -2 69 28 97 17 15 58 39 93 52 l62 24 0 44 c0 39 -3 45 -22
48 -13 2 -49 -9 -82 -23 -59 -27 -81 -27 -81 0 0 7 -7 16 -16 19 -21 8 -89 8
-97 -1z"/>
<path d="M8300 965 c0 -8 5 -15 10 -15 6 0 10 7 10 15 0 8 -4 15 -10 15 -5 0
-10 -7 -10 -15z"/>
<path d="M9140 970 c0 -5 5 -10 10 -10 6 0 10 5 10 10 0 6 -4 10 -10 10 -5 0
-10 -4 -10 -10z"/>
<path d="M12690 965 c0 -8 5 -15 10 -15 6 0 10 7 10 15 0 8 -4 15 -10 15 -5 0
-10 -7 -10 -15z"/>
<path d="M10410 943 c-67 -35 -106 -88 -122 -165 -24 -113 20 -222 109 -275
41 -24 59 -28 123 -28 41 0 84 6 95 12 17 10 6 12 -64 13 -66 0 -95 5 -129 21
-156 76 -140 354 23 411 38 14 67 16 120 12 58 -5 68 -4 57 7 -7 8 -42 15 -85
17 -64 3 -78 0 -127 -25z"/>
<path d="M7651 943 c-5 -10 -29 -70 -54 -133 -25 -63 -64 -159 -86 -213 -44
-106 -47 -117 -31 -117 6 0 24 29 40 65 l29 66 133 -3 132 -3 24 -62 c14 -36
30 -63 38 -63 8 0 14 4 14 10 0 5 -41 113 -91 240 -83 211 -92 230 -114 230
-14 0 -28 -8 -34 -17z m90 -153 c27 -68 47 -130 45 -137 -8 -19 -204 -19 -212
1 -3 7 14 60 37 117 22 57 45 114 50 127 5 13 14 22 20 20 5 -2 33 -59 60
-128z"/>
<path d="M8522 830 c-50 -12 -53 -24 -4 -16 71 11 112 -1 127 -38 16 -37 19
-185 5 -221 -6 -16 -6 -25 0 -25 5 0 12 -11 16 -25 3 -14 10 -25 15 -25 12 0
12 262 -1 294 -18 47 -90 73 -158 56z"/>
<path d="M8918 831 c-92 -30 -133 -93 -126 -196 3 -53 9 -71 34 -102 41 -50
92 -68 159 -55 l50 9 -48 2 c-104 3 -162 64 -162 171 1 104 71 167 171 154 38
-5 46 -4 38 5 -15 16 -82 23 -116 12z"/>
<path d="M9825 832 c-39 -8 -34 -17 10 -17 83 0 104 -47 105 -227 0 -60 4
-108 9 -108 13 0 20 125 12 217 -5 70 -10 87 -31 107 -26 24 -70 36 -105 28z"/>
<path d="M12468 831 c-82 -26 -117 -72 -125 -161 -12 -129 81 -218 202 -196
48 9 44 25 -4 19 -60 -8 -124 27 -150 81 -61 126 21 254 154 239 35 -4 47 -2
40 5 -14 15 -85 23 -117 13z"/>
<path d="M12905 817 c-56 -32 -87 -91 -87 -166 0 -118 79 -193 188 -176 82 12
134 80 134 178 0 92 -37 151 -109 176 -50 16 -81 13 -126 -12z m142 -23 c77
-49 74 -243 -4 -285 -60 -32 -137 -8 -170 54 -25 46 -24 142 2 187 38 64 111
83 172 44z"/>
<path d="M7937 823 c-3 -5 21 -82 52 -173 48 -140 59 -165 78 -168 18 -3 25 6
43 55 26 69 100 284 100 289 0 2 -7 4 -15 4 -8 0 -15 -1 -15 -3 0 -9 -99 -290
-104 -295 -13 -12 -26 16 -65 138 -21 69 -42 133 -46 143 -7 18 -21 22 -28 10z"/>
<path d="M8291 661 c4 -156 9 -194 25 -178 9 9 18 290 10 321 -3 14 -13 26
-22 26 -14 0 -16 -20 -13 -169z"/>
<path d="M9134 816 c-8 -21 0 -323 9 -332 4 -4 10 -5 13 -2 10 10 17 231 10
291 -7 55 -21 73 -32 43z"/>
<path d="M9345 811 c-41 -25 -62 -58 -73 -118 -24 -135 64 -237 188 -217 82
13 130 79 130 179 0 68 -28 128 -73 155 -43 26 -131 27 -172 1z m143 -11 c92
-56 92 -240 1 -294 -42 -25 -102 -16 -139 19 -55 52 -63 169 -16 237 39 59 96
73 154 38z"/>
<path d="M10830 812 c-55 -27 -83 -90 -77 -175 4 -57 9 -74 34 -105 74 -92
225 -72 269 35 34 81 4 205 -58 243 -42 25 -120 26 -168 2z m135 -8 c97 -46
98 -242 3 -299 -41 -24 -101 -15 -138 20 -55 52 -63 169 -16 237 38 57 90 71
151 42z"/>
<path d="M11176 762 c-8 -85 -8 -230 0 -259 13 -50 22 -17 26 100 5 132 17
173 63 203 35 23 90 11 113 -24 14 -21 17 -52 19 -160 1 -74 4 -137 8 -140 16
-16 25 32 25 133 0 123 14 168 61 194 22 12 34 13 67 3 54 -16 62 -43 62 -204
0 -99 3 -129 13 -125 9 3 12 41 12 145 l0 141 -29 30 c-24 25 -38 31 -70 31
-41 0 -106 -31 -106 -50 0 -5 -7 -10 -15 -10 -8 0 -15 4 -15 10 0 5 -10 18
-22 30 -32 30 -98 27 -136 -5 -36 -30 -52 -32 -52 -6 0 11 -4 22 -9 25 -4 3
-11 -25 -15 -62z"/>
<path d="M11833 814 c-75 -37 -107 -169 -63 -259 12 -25 32 -53 44 -60 30 -20
105 -29 136 -16 22 9 19 10 -24 10 -98 2 -150 67 -143 181 6 93 49 150 113
150 42 0 77 -30 94 -79 17 -54 9 -71 -35 -71 -22 0 -34 -4 -30 -10 3 -5 28
-10 56 -10 l49 0 0 35 c0 45 -31 107 -64 128 -32 21 -91 21 -133 1z"/>
<path d="M12137 732 c-12 -167 -7 -252 13 -252 4 0 10 53 12 118 3 64 10 129
16 144 9 21 8 27 -4 32 -8 3 -14 14 -14 25 0 11 -4 22 -9 25 -4 3 -11 -38 -14
-92z"/>
<path d="M12680 661 c0 -158 6 -198 28 -177 8 9 16 289 8 320 -3 14 -13 26
-21 26 -13 0 -15 -26 -15 -169z"/>
<path d="M9699 808 c-4 -71 4 -315 12 -323 5 -5 9 29 9 91 0 107 16 181 47
217 17 21 16 21 -8 -1 -27 -23 -39 -21 -39 10 0 20 -20 25 -21 6z"/>
<path d="M12199 793 c-13 -16 -12 -17 4 -4 16 13 21 21 13 21 -2 0 -10 -8 -17
-17z"/>
<path d="M8505 665 c-49 -18 -74 -50 -75 -95 0 -47 23 -77 68 -90 32 -8 112 1
112 14 0 2 -22 1 -49 -2 -43 -4 -53 -1 -75 21 -28 28 -32 53 -15 91 13 27 64
56 101 56 12 0 30 5 38 10 24 15 -58 12 -105 -5z"/>
</g>
</svg>
