<?xml version="1.0" standalone="no"?>
<!DOCTYPE svg PUBLIC "-//W3C//DTD SVG 20010904//EN"
 "http://www.w3.org/TR/2001/REC-SVG-20010904/DTD/svg10.dtd">
<svg version="1.0" xmlns="http://www.w3.org/2000/svg"
 width="3311.000000pt" height="601.000000pt" viewBox="0 0 3311.000000 601.000000"
 preserveAspectRatio="xMidYMid meet">

<g transform="translate(0.000000,601.000000) scale(0.100000,-0.100000)"
fill="#000000" stroke="none">
<path d="M14699 5893 c-31 -3 -39 -10 -58 -48 -36 -72 -69 -191 -78 -279 -8
-85 -20 -96 -105 -96 -39 0 -68 4 -68 10 0 6 -7 10 -15 10 -9 0 -15 9 -15 25
0 14 -4 25 -10 25 -5 0 -10 11 -10 24 0 13 -7 26 -15 30 -8 3 -15 15 -15 26 0
11 -4 20 -10 20 -5 0 -10 11 -10 25 0 14 -5 25 -10 25 -6 0 -18 18 -27 40 -10
22 -22 40 -27 40 -5 0 -17 10 -28 23 -24 28 -84 28 -162 2 -52 -18 -54 -20
-65 -67 -13 -58 -14 -266 -2 -319 5 -21 6 -41 2 -46 -5 -8 -35 -26 -93 -54
-10 -5 -33 -9 -52 -9 -28 0 -36 5 -49 33 -9 17 -25 39 -36 47 -12 8 -21 18
-21 22 0 9 -127 138 -136 138 -3 0 -12 7 -20 15 -25 25 -82 18 -137 -16 -68
-42 -77 -52 -77 -90 0 -39 19 -157 30 -184 4 -11 18 -48 30 -83 13 -34 27 -65
31 -68 27 -16 -7 -66 -73 -109 -35 -22 -63 -15 -109 28 -19 18 -42 37 -50 40
-8 4 -27 16 -44 26 -16 11 -38 20 -47 20 -10 1 -18 5 -18 10 0 9 -67 36 -116
46 -22 4 -36 1 -47 -9 -9 -9 -18 -16 -22 -16 -6 0 -49 -47 -74 -83 -12 -16
-12 -26 -2 -56 28 -79 93 -199 141 -258 27 -34 50 -66 50 -71 0 -5 -8 -19 -19
-31 -10 -12 -29 -37 -42 -56 -18 -25 -31 -35 -51 -35 -33 0 -108 29 -108 41 0
5 -15 9 -33 9 -18 0 -37 4 -43 9 -9 9 -60 18 -154 27 -49 5 -58 3 -77 -18 -25
-27 -73 -115 -73 -135 0 -41 182 -253 217 -253 7 0 13 -4 13 -8 0 -5 12 -15
26 -22 29 -16 29 -41 1 -114 -22 -58 -34 -64 -119 -54 -106 12 -299 0 -326
-21 -22 -16 -52 -107 -52 -156 0 -34 96 -116 189 -160 42 -20 96 -46 121 -58
50 -24 49 -23 34 -135 -7 -58 -8 -58 -99 -65 -121 -10 -308 -81 -319 -121 -12
-44 -6 -154 9 -168 35 -31 45 -38 59 -38 8 0 17 -4 20 -9 3 -4 20 -11 38 -15
18 -3 56 -11 83 -17 28 -6 84 -16 125 -23 69 -10 75 -13 78 -36 1 -14 7 -51
14 -83 13 -67 6 -76 -69 -98 -24 -6 -48 -18 -54 -25 -6 -8 -18 -14 -26 -14
-18 0 -127 -73 -170 -113 -19 -17 -33 -41 -33 -53 0 -38 29 -137 44 -153 30
-29 254 -42 356 -20 45 10 54 9 71 -7 10 -9 19 -22 19 -29 0 -6 9 -30 20 -53
11 -22 20 -45 20 -50 0 -5 -25 -29 -56 -52 -76 -57 -158 -141 -200 -205 l-35
-52 28 -59 c15 -32 35 -66 43 -76 19 -21 68 -40 81 -32 6 3 45 13 87 21 42 8
90 17 107 20 16 3 35 12 43 19 7 8 24 14 37 14 13 0 27 5 30 10 9 14 54 12 68
-3 64 -68 89 -118 67 -132 -36 -22 -170 -252 -170 -293 0 -9 -4 -23 -9 -31
-10 -15 12 -71 28 -71 4 0 14 -11 21 -25 7 -14 19 -25 27 -25 7 0 13 -7 13
-15 0 -21 93 -21 110 0 7 8 23 15 36 15 13 0 24 5 24 10 0 6 11 10 25 10 14 0
25 6 25 13 0 8 18 20 40 27 22 7 40 17 40 22 0 11 25 38 35 38 4 0 18 9 31 19
29 23 51 18 112 -23 52 -35 60 -61 33 -113 -33 -66 -71 -217 -71 -284 0 -55 4
-67 27 -91 15 -15 33 -28 40 -28 7 0 13 -4 13 -10 0 -5 8 -10 18 -10 10 0 27
-7 39 -15 19 -13 23 -13 37 0 8 8 22 15 31 15 17 0 45 23 45 37 0 8 47 33 64
33 6 1 21 23 34 50 13 28 30 50 38 50 8 0 14 5 14 11 0 14 25 39 39 39 6 0 11
5 11 11 0 6 6 17 14 25 12 12 20 12 53 0 89 -33 95 -38 88 -76 -15 -86 -16
-256 -2 -315 12 -54 18 -62 58 -86 36 -22 57 -28 112 -28 65 -1 67 0 67 24 0
16 6 25 15 25 8 0 15 5 15 11 0 14 25 39 39 39 6 0 11 11 11 25 0 14 5 25 10
25 6 0 10 11 10 25 0 16 6 25 15 25 9 0 15 9 15 25 0 14 5 25 10 25 6 0 10 11
10 24 0 14 7 31 15 40 8 8 15 19 15 25 0 7 26 11 68 11 81 0 98 -13 107 -80
22 -170 76 -323 119 -336 11 -4 26 -13 34 -20 8 -8 35 -14 65 -14 42 0 58 5
79 25 15 14 32 25 38 25 5 0 10 18 10 40 0 22 5 40 10 40 6 0 10 11 10 24 0
14 6 31 14 39 8 7 17 43 20 78 10 131 16 149 42 149 15 0 24 6 24 15 0 11 13
15 53 15 l53 0 23 -53 c40 -91 45 -101 92 -172 79 -117 89 -125 164 -125 36 0
65 3 65 8 0 4 16 16 35 26 25 14 35 26 35 43 0 12 5 23 10 23 6 0 10 68 10
185 0 195 0 193 43 186 5 -1 6 3 3 8 -7 10 47 41 71 41 17 0 24 -7 83 -80 47
-58 110 -117 171 -163 27 -20 48 -27 82 -27 25 0 49 4 52 10 3 5 15 10 26 10
10 0 19 7 19 15 0 9 9 15 25 15 l25 0 0 100 c0 82 -3 100 -15 100 -10 0 -15
11 -15 35 0 19 -4 35 -10 35 -5 0 -10 15 -10 33 0 17 -7 41 -15 51 -20 27 -20
86 0 86 8 0 15 5 15 11 0 14 25 39 39 39 6 0 11 7 11 15 0 27 49 16 103 -23
86 -63 248 -142 292 -142 13 0 25 7 29 15 3 8 13 15 21 15 19 0 45 23 45 39 0
6 7 11 15 11 12 0 15 15 15 75 0 60 -3 75 -15 75 -8 0 -15 9 -15 20 0 11 -4
20 -10 20 -5 0 -10 7 -10 15 0 8 -4 15 -10 15 -5 0 -12 11 -16 25 -3 14 -9 25
-13 25 -3 0 -15 16 -25 35 -11 19 -23 35 -28 35 -4 0 -8 11 -8 25 0 16 -6 25
-15 25 -9 0 -15 9 -15 25 0 16 6 25 15 25 8 0 15 5 15 11 0 14 25 39 39 39 6
0 11 11 11 25 0 36 22 34 145 -15 61 -24 115 -33 197 -34 65 -1 92 3 95 12 3
6 11 12 19 12 8 0 14 7 14 15 0 8 5 15 10 15 6 0 10 9 10 20 0 11 7 20 15 20
11 0 15 11 15 40 0 22 -5 40 -11 40 -17 0 -39 27 -39 49 0 12 -6 21 -15 21 -8
0 -15 5 -15 11 0 14 -25 39 -39 39 -6 0 -11 5 -11 11 0 10 -24 39 -33 39 -5 0
-44 31 -78 62 -10 10 -23 18 -29 18 -5 0 -10 16 -10 35 0 24 5 35 15 35 10 0
15 11 15 35 0 19 5 35 10 35 6 0 10 6 10 14 0 11 32 13 178 12 182 -1 242 9
242 40 0 8 7 14 15 14 9 0 15 9 15 25 0 14 5 25 10 25 6 0 10 21 10 46 0 44
-16 74 -39 74 -6 0 -11 6 -11 13 0 6 -13 18 -28 25 -16 6 -37 20 -48 31 -11
10 -38 26 -60 36 -21 10 -65 30 -96 44 l-57 26 0 87 -1 86 31 11 c18 6 56 11
85 11 30 0 54 4 54 10 0 5 18 13 40 16 22 4 43 11 46 15 3 5 23 9 45 9 21 0
39 5 39 10 0 6 11 10 25 10 16 0 25 6 25 15 0 8 7 15 15 15 12 0 15 15 15 78
0 96 -7 122 -31 122 -11 0 -19 5 -19 10 0 6 -9 10 -20 10 -12 0 -31 6 -43 14
-12 8 -47 19 -77 26 -30 7 -76 18 -102 26 -26 8 -59 14 -73 14 -45 0 -55 20
-55 109 0 79 1 81 24 81 13 0 26 7 30 15 3 8 15 15 26 15 11 0 20 5 20 10 0 6
11 10 25 10 14 0 25 4 25 8 0 9 70 42 88 42 7 0 12 5 12 11 0 17 27 39 49 39
12 0 21 6 21 15 0 8 5 15 10 15 6 0 10 27 10 60 0 33 -4 60 -10 60 -5 0 -10
11 -10 25 0 16 -6 25 -15 25 -8 0 -15 4 -15 9 0 5 -18 16 -40 25 -31 12 -77
16 -206 16 -176 0 -194 5 -194 49 0 12 -6 21 -15 21 -11 0 -15 11 -15 40 0 27
4 40 14 40 7 0 16 9 19 20 3 11 13 23 24 27 10 4 25 15 34 25 9 10 21 18 28
18 6 0 11 5 11 11 0 14 25 39 39 39 6 0 11 5 11 11 0 14 25 39 39 39 6 0 11 4
11 10 0 15 33 50 42 44 4 -3 8 18 8 45 0 39 -4 51 -15 51 -9 0 -15 9 -15 25 0
14 -4 25 -10 25 -5 0 -10 7 -10 15 0 8 -6 15 -14 15 -8 0 -16 6 -19 13 -3 8
-28 11 -88 10 -85 -2 -110 -7 -232 -49 -72 -25 -117 -31 -117 -14 0 6 -7 10
-15 10 -8 0 -15 7 -15 15 0 8 -4 15 -10 15 -6 0 -10 27 -10 60 0 33 4 60 8 60
5 0 17 16 28 35 10 19 22 35 26 35 5 0 8 9 8 20 0 11 7 23 15 26 8 4 15 12 15
20 0 8 5 14 10 14 6 0 10 11 10 25 0 16 6 25 15 25 10 0 15 11 15 35 0 19 5
35 10 35 6 0 10 11 10 25 0 14 -4 25 -10 25 -5 0 -10 11 -10 25 0 14 -5 25
-11 25 -14 0 -39 25 -39 39 0 6 -9 11 -19 11 -11 0 -23 5 -26 10 -22 35 -173
-25 -319 -128 -43 -30 -81 -51 -85 -45 -3 5 -21 16 -38 24 -18 8 -33 20 -33
26 0 7 -7 13 -15 13 -11 0 -15 12 -15 49 0 31 6 55 15 65 8 8 15 28 15 45 0
16 5 33 10 36 6 3 10 17 10 31 0 15 6 24 15 24 12 0 15 13 15 60 0 33 4 60 10
60 6 0 10 11 10 25 0 14 -4 25 -10 25 -5 0 -10 11 -10 25 0 20 -5 25 -25 25
-14 0 -25 5 -25 10 0 6 -7 10 -15 10 -8 0 -15 7 -15 15 0 11 -12 15 -51 15
-42 0 -60 -6 -107 -39 -61 -41 -168 -150 -198 -200 -15 -25 -25 -31 -51 -31
-18 0 -33 5 -33 10 0 6 -9 10 -20 10 -11 0 -23 7 -26 15 -4 8 -12 15 -20 15
-11 0 -14 34 -14 185 0 117 -4 185 -10 185 -5 0 -10 9 -10 21 0 23 -22 49 -42
49 -8 0 -18 4 -24 9 -5 5 -37 11 -71 14 -60 4 -62 4 -96 -32 -59 -63 -157
-233 -157 -274 0 -32 -33 -46 -93 -40 -31 3 -57 10 -57 14 0 5 -7 9 -15 9 -8
0 -15 7 -15 15 0 8 -4 15 -10 15 -6 0 -10 31 -10 74 0 53 -4 79 -15 90 -8 8
-15 31 -15 50 0 20 -4 36 -10 36 -5 0 -10 16 -10 35 0 23 -5 35 -13 35 -8 0
-19 11 -25 25 -6 14 -20 25 -30 25 -11 0 -39 2 -63 4 -24 2 -60 2 -80 -1z
m371 -666 c95 -16 283 -63 308 -76 10 -5 46 -19 82 -31 149 -52 369 -176 514
-290 68 -54 201 -178 257 -241 231 -261 377 -542 461 -884 44 -181 57 -531 27
-725 -12 -79 -69 -319 -80 -340 -4 -8 -17 -41 -29 -74 -11 -32 -45 -108 -74
-170 -187 -389 -523 -724 -917 -915 -247 -119 -421 -167 -699 -192 -124 -11
-371 -4 -460 12 -90 17 -242 51 -286 65 -202 64 -434 184 -603 312 -104 79
-109 83 -221 197 -105 106 -145 151 -162 184 -7 13 -26 38 -41 55 -16 16 -40
50 -53 75 -14 25 -38 66 -54 91 -16 25 -34 56 -40 70 -12 26 -63 135 -86 183
-8 16 -14 35 -14 43 0 8 -4 22 -9 32 -29 57 -81 265 -81 327 0 17 -7 52 -15
79 -20 67 -20 413 0 506 8 36 14 82 15 102 0 20 4 47 9 60 5 13 17 58 26 101
10 42 21 77 26 77 5 0 9 8 9 17 0 21 18 75 46 138 12 28 25 60 28 73 4 12 12
22 17 22 5 0 9 6 9 13 0 14 29 78 39 87 3 3 19 31 36 63 16 31 32 57 36 57 4
0 10 11 13 25 4 14 11 25 16 25 6 0 10 7 10 15 0 8 3 15 8 15 4 0 22 23 41 50
19 28 37 50 40 50 4 0 14 12 24 28 49 79 261 273 407 372 12 8 39 26 59 40 40
29 266 141 321 160 19 7 49 18 66 26 47 21 279 80 379 97 115 19 471 16 595
-6z"/>
<path d="M14610 5000 c-109 -9 -218 -26 -252 -39 -13 -5 -48 -14 -78 -21 -30
-7 -65 -18 -77 -26 -12 -8 -31 -14 -42 -14 -11 0 -23 -4 -26 -10 -3 -5 -12
-10 -20 -10 -36 0 -367 -183 -395 -219 -3 -3 -23 -19 -45 -36 -36 -26 -74 -59
-145 -126 -47 -44 -130 -140 -181 -209 -35 -47 -149 -238 -149 -250 0 -5 -9
-26 -21 -46 -11 -21 -30 -62 -40 -93 -11 -31 -24 -65 -29 -76 -4 -11 -13 -40
-20 -65 -6 -25 -16 -60 -22 -78 -42 -137 -59 -464 -34 -647 9 -66 24 -145 32
-175 8 -30 20 -73 26 -95 6 -22 14 -49 18 -60 5 -11 18 -46 29 -77 11 -32 25
-66 29 -75 5 -10 22 -43 37 -73 16 -30 33 -65 39 -77 6 -13 14 -23 19 -23 4 0
7 -5 7 -11 0 -15 111 -179 121 -179 5 0 9 -5 9 -10 0 -6 12 -23 28 -38 15 -15
43 -46 63 -67 51 -58 153 -150 218 -197 31 -23 58 -45 59 -50 2 -4 8 -8 13 -8
10 0 103 -62 107 -72 2 -5 11 -8 20 -9 10 0 31 -9 47 -20 17 -10 37 -22 45
-25 8 -3 39 -17 68 -30 29 -13 59 -24 67 -24 7 0 17 -5 20 -10 3 -6 16 -10 29
-10 12 0 31 -7 42 -15 10 -8 34 -15 52 -15 17 0 32 -4 32 -9 0 -5 19 -11 43
-15 139 -18 175 -24 193 -34 12 -6 99 -11 224 -11 167 -1 209 2 224 14 12 9
42 15 77 15 32 0 61 5 64 10 3 6 31 10 61 10 30 0 54 5 54 10 0 6 18 10 40 10
29 0 40 4 40 15 0 10 11 15 35 15 19 0 35 5 35 10 0 6 11 10 25 10 16 0 25 6
25 15 0 9 9 15 25 15 14 0 25 5 25 10 0 6 11 10 24 10 13 0 26 6 29 13 2 6 25
18 51 26 26 7 46 19 46 27 0 8 10 14 23 14 12 0 31 11 41 25 10 14 27 25 37
25 11 0 19 5 19 10 0 6 7 10 15 10 8 0 15 7 15 15 0 9 9 15 21 15 22 0 49 22
49 39 0 6 6 11 13 11 7 0 19 9 27 20 8 11 25 20 37 20 13 0 23 5 23 11 0 14
25 39 39 39 6 0 11 7 11 15 0 8 5 15 10 15 6 0 10 8 10 19 0 10 11 27 25 37
14 10 25 24 25 31 0 7 5 13 11 13 14 0 39 25 39 39 0 6 5 11 11 11 17 0 39 27
39 49 0 12 6 21 15 21 8 0 15 5 15 11 0 14 25 39 39 39 6 0 11 11 11 25 0 14
5 25 10 25 6 0 10 11 10 25 0 16 6 25 15 25 9 0 15 9 15 25 0 14 5 25 10 25 6
0 10 11 10 25 0 16 6 25 15 25 9 0 15 9 15 25 0 14 5 25 10 25 6 0 10 11 10
25 0 14 5 25 10 25 6 0 10 16 10 35 0 24 5 35 15 35 10 0 15 11 15 35 0 19 5
35 10 35 6 0 10 23 10 50 0 38 4 50 15 50 11 0 15 12 15 50 0 28 5 50 10 50 6
0 10 32 10 75 0 60 3 75 15 75 13 0 15 24 15 160 0 136 -2 160 -15 160 -12 0
-15 16 -15 85 0 50 -4 85 -10 85 -5 0 -10 23 -10 50 0 38 -4 50 -15 50 -11 0
-15 11 -15 40 0 22 -4 40 -10 40 -5 0 -10 16 -10 35 0 24 -5 35 -15 35 -10 0
-15 11 -15 35 0 19 -4 35 -10 35 -5 0 -10 11 -10 25 0 14 -4 25 -10 25 -5 0
-10 11 -10 25 0 16 -6 25 -15 25 -9 0 -15 9 -15 25 0 14 -4 25 -10 25 -5 0
-10 11 -10 25 0 16 -6 25 -15 25 -9 0 -15 9 -15 25 0 14 -4 25 -10 25 -5 0
-10 11 -10 25 0 16 -6 25 -15 25 -8 0 -15 7 -15 15 0 8 -4 15 -10 15 -5 0 -10
9 -10 20 0 11 -7 20 -15 20 -8 0 -15 5 -15 11 0 14 -25 39 -39 39 -6 0 -11 7
-11 15 0 8 -4 15 -10 15 -5 0 -10 11 -10 25 0 14 -5 25 -11 25 -14 0 -39 25
-39 39 0 6 -5 11 -11 11 -14 0 -39 25 -39 39 0 6 -5 11 -11 11 -14 0 -39 25
-39 39 0 6 -8 11 -17 11 -22 1 -53 23 -53 39 0 6 -6 11 -13 11 -7 0 -19 9 -27
20 -8 11 -20 20 -27 20 -7 0 -13 7 -13 15 0 9 -9 15 -21 15 -22 0 -49 22 -49
39 0 6 -11 11 -25 11 -14 0 -25 5 -25 10 0 6 -6 10 -14 10 -8 0 -21 6 -28 13
-21 19 -56 37 -73 37 -8 0 -15 4 -15 9 0 5 -10 13 -22 16 -44 13 -98 39 -98
47 0 4 -8 8 -17 8 -18 0 -72 16 -118 36 -16 7 -50 18 -75 24 -25 7 -65 18 -90
25 -114 34 -359 49 -540 35z m-80 -278 c22 -18 23 -25 22 -133 -1 -63 -6 -152
-12 -199 -17 -148 -30 -315 -30 -378 0 -84 -19 -203 -35 -226 -16 -21 -81 -26
-118 -8 -12 5 -29 13 -37 16 -8 3 -22 10 -30 15 -8 5 -118 60 -245 121 -126
61 -238 116 -247 121 -10 5 -25 9 -33 9 -9 0 -18 7 -21 15 -4 8 -15 15 -25 15
-10 0 -19 5 -19 10 0 6 -9 10 -20 10 -10 0 -23 6 -27 13 -4 6 -17 17 -28 23
-11 6 -21 23 -23 38 -3 23 11 41 82 112 47 46 90 84 95 84 6 0 11 7 11 15 0 8
7 15 15 15 8 0 15 4 15 8 0 5 16 17 35 28 19 10 35 21 35 25 0 4 8 9 18 13 18
6 44 22 73 45 32 26 122 72 199 103 41 16 80 33 85 37 6 4 28 12 50 19 22 6
67 18 100 27 33 9 65 18 70 20 19 6 23 5 45 -13z m550 4 c139 -35 388 -134
398 -158 2 -4 8 -8 13 -8 16 0 152 -91 224 -150 89 -73 215 -203 215 -222 0
-30 -21 -42 -330 -191 -74 -35 -211 -102 -303 -146 -134 -66 -176 -82 -205
-79 -30 2 -38 7 -40 26 -2 12 -8 22 -13 22 -5 0 -9 49 -9 110 0 67 -4 110 -10
110 -6 0 -10 55 -10 145 0 122 -2 145 -15 145 -13 0 -15 29 -15 199 0 209 -1
203 40 209 3 1 30 -5 60 -12z m-1532 -1023 c70 -48 228 -156 352 -240 124 -84
233 -165 242 -180 32 -50 7 -85 -116 -165 -45 -29 -83 -55 -86 -58 -3 -4 -48
-35 -100 -70 -52 -34 -163 -109 -246 -166 -158 -108 -196 -128 -223 -119 -20
6 -47 58 -56 105 -12 70 -24 126 -35 170 -8 28 -12 126 -12 265 0 139 4 237
12 265 6 25 16 65 20 90 20 103 29 135 39 138 6 2 11 14 11 27 0 27 15 36 48
29 12 -2 80 -44 150 -91z m2616 81 c9 -8 18 -27 21 -42 3 -15 10 -40 14 -57 5
-16 14 -52 19 -80 6 -27 16 -75 23 -105 17 -75 17 -395 0 -485 -20 -109 -58
-261 -70 -284 -14 -25 -67 -33 -81 -11 -3 4 -20 15 -37 24 -18 9 -33 20 -33
24 0 4 -14 13 -31 21 -17 7 -41 23 -53 36 -12 12 -32 26 -44 29 -12 4 -22 11
-22 15 0 4 -16 16 -35 27 -19 10 -35 22 -35 26 0 5 -7 8 -15 8 -8 0 -15 5 -15
10 0 6 -6 10 -13 10 -7 0 -24 11 -39 25 -15 14 -34 25 -43 25 -9 0 -18 7 -21
15 -4 8 -12 15 -20 15 -8 0 -14 3 -14 8 0 4 -16 16 -35 26 -19 11 -35 22 -35
26 0 3 -16 12 -35 20 -19 8 -35 19 -35 24 0 6 -15 18 -33 26 -17 8 -36 25 -42
38 -5 12 -13 22 -17 22 -5 0 -8 11 -8 25 0 14 5 25 10 25 6 0 10 11 10 25 0
15 6 25 14 25 8 0 16 7 20 15 3 8 13 15 23 15 10 0 27 11 37 25 10 14 26 25
35 25 9 0 23 9 31 21 8 11 31 28 50 37 19 9 46 27 60 39 14 13 30 23 37 23 7
0 13 5 13 10 0 6 7 10 15 10 8 0 15 4 15 10 0 5 10 12 23 15 13 4 31 17 41 31
11 13 27 24 37 24 11 0 19 5 19 10 0 6 7 10 15 10 8 0 15 5 15 11 0 16 31 38
53 39 9 0 17 4 17 10 0 5 16 17 35 26 19 9 35 20 35 26 0 9 76 47 97 48 6 0
19 -7 27 -16z m-1554 -132 c55 -66 49 -100 -36 -181 -77 -74 -103 -148 -89
-257 8 -65 63 -154 112 -181 18 -9 33 -21 33 -25 0 -5 11 -8 24 -8 14 0 28 -4
31 -10 8 -12 129 -13 153 -1 9 4 35 18 57 30 22 12 48 25 58 28 9 3 20 16 23
29 3 13 11 24 16 24 16 0 38 28 38 49 0 12 5 21 10 21 6 0 10 37 10 90 0 53
-4 90 -10 90 -5 0 -10 9 -10 21 0 13 -24 44 -60 78 -33 32 -60 65 -60 74 0 9
-7 17 -15 17 -11 0 -15 11 -15 40 0 26 5 40 13 40 7 0 17 10 22 23 8 18 19 23
57 25 47 3 49 2 115 -65 81 -81 118 -150 144 -266 32 -149 -54 -358 -188 -454
-90 -65 -194 -103 -279 -103 -57 1 -162 24 -177 39 -6 6 -19 11 -29 11 -10 0
-18 4 -18 9 0 5 -11 12 -25 15 -14 4 -25 11 -25 16 0 6 -4 10 -10 10 -5 0 -28
18 -50 40 -22 22 -40 45 -40 50 0 6 -4 10 -9 10 -12 0 -41 57 -41 80 0 10 -7
20 -15 24 -9 3 -15 18 -15 36 0 16 -4 30 -10 30 -6 0 -10 43 -10 110 0 67 4
110 10 110 6 0 10 13 10 29 0 16 7 36 15 45 8 8 15 22 15 30 0 9 4 16 9 16 5
0 12 11 15 25 4 14 11 25 16 25 6 0 10 5 10 11 0 14 25 39 39 39 6 0 11 5 11
11 0 13 25 39 38 39 5 0 15 7 22 15 18 21 92 20 110 -3z m-122 -946 c13 -18
21 -48 25 -108 4 -46 11 -137 17 -203 11 -121 26 -330 37 -506 5 -94 5 -96
-21 -116 -22 -18 -32 -20 -64 -11 -20 5 -55 14 -77 20 -22 6 -49 14 -60 19
-11 5 -42 16 -70 24 -86 28 -256 115 -354 182 -103 71 -133 96 -233 194 -62
61 -68 70 -68 108 0 40 2 43 45 62 24 11 47 24 50 29 3 6 17 10 31 10 13 0 24
5 24 10 0 6 11 10 24 10 13 0 26 7 30 15 3 8 14 15 25 15 11 0 23 5 26 10 3 6
14 10 25 10 10 0 20 7 24 15 3 9 18 15 36 15 16 0 30 5 30 10 0 6 11 10 25 10
16 0 25 6 25 15 0 8 9 15 19 15 11 0 23 5 26 10 3 6 17 10 30 10 12 0 25 7 29
15 3 8 15 15 26 15 11 0 20 4 20 8 0 11 162 92 183 92 9 0 17 5 17 10 0 6 18
10 39 10 30 0 44 -6 59 -24z m816 -50 c83 -40 223 -108 311 -151 88 -43 187
-91 220 -107 61 -29 95 -60 95 -83 0 -7 -42 -53 -92 -103 -134 -131 -282 -239
-413 -302 -94 -45 -236 -100 -257 -100 -9 0 -19 -4 -22 -9 -6 -9 -41 -17 -122
-27 -40 -6 -40 -5 -53 34 -8 25 -11 52 -6 69 4 15 10 84 14 152 4 86 10 126
19 129 9 3 12 37 12 128 0 76 4 124 10 124 6 0 10 48 10 125 0 77 4 125 10
125 6 0 10 16 10 35 l0 35 52 0 c44 0 74 -11 202 -74z"/>
<path d="M18000 5875 c0 -8 -7 -15 -15 -15 -13 0 -15 -293 -15 -2575 0 -2282
2 -2575 15 -2575 11 0 15 -12 15 -50 0 -27 5 -50 10 -50 6 0 10 23 10 50 0 38
4 50 15 50 13 0 15 293 15 2575 0 2282 -2 2575 -15 2575 -8 0 -15 7 -15 15 0
8 -4 15 -10 15 -5 0 -10 -7 -10 -15z"/>
<path d="M21560 4175 l0 -655 35 0 35 0 0 50 c0 36 4 50 14 50 8 0 16 6 18 12
5 15 38 -13 38 -31 0 -6 5 -11 11 -11 14 0 39 -25 39 -39 0 -6 7 -11 15 -11 8
0 15 -4 15 -10 0 -5 11 -10 25 -10 16 0 25 -6 25 -15 0 -12 18 -15 100 -15 82
0 100 3 100 15 0 9 9 15 25 15 14 0 25 5 25 10 0 6 11 10 25 10 16 0 25 6 25
15 0 8 9 15 20 15 11 0 20 5 20 10 0 6 7 10 15 10 9 0 15 9 15 25 0 14 5 25
10 25 6 0 10 11 10 25 0 16 6 25 15 25 9 0 15 9 15 25 0 14 5 25 10 25 6 0 10
27 10 60 0 47 3 60 15 60 12 0 15 17 15 90 0 73 -3 90 -15 90 -12 0 -15 13
-15 60 0 33 -4 60 -10 60 -5 0 -10 11 -10 25 0 16 -6 25 -15 25 -9 0 -15 9
-15 25 0 14 -4 25 -10 25 -5 0 -10 11 -10 25 0 14 -5 25 -11 25 -14 0 -39 25
-39 39 0 6 -11 11 -25 11 -14 0 -25 5 -25 10 0 6 -16 10 -35 10 -24 0 -35 5
-35 15 0 12 -15 15 -75 15 -60 0 -75 -3 -75 -15 0 -11 -11 -15 -40 -15 -22 0
-40 -4 -40 -10 0 -5 -11 -10 -25 -10 -14 0 -25 -5 -25 -11 0 -14 -25 -39 -39
-39 -6 0 -11 -5 -11 -11 0 -11 -24 -39 -34 -39 -3 0 -6 11 -6 25 0 16 -6 25
-15 25 -13 0 -15 36 -15 260 l0 260 -35 0 -35 0 0 -655z m390 170 c0 -11 11
-15 40 -15 22 0 40 -4 40 -10 0 -5 11 -10 25 -10 14 0 25 -5 25 -11 0 -11 25
-39 35 -39 14 0 35 -30 35 -49 0 -12 5 -21 10 -21 6 0 10 -18 10 -40 0 -29 4
-40 15 -40 13 0 15 -24 15 -160 0 -136 -2 -160 -15 -160 -10 0 -15 -11 -15
-35 0 -19 -4 -35 -10 -35 -5 0 -10 -11 -10 -25 0 -14 -4 -25 -10 -25 -5 0 -10
-7 -10 -15 0 -8 -5 -15 -11 -15 -14 0 -39 -25 -39 -39 0 -6 -7 -11 -15 -11 -8
0 -15 -4 -15 -10 0 -6 -47 -10 -121 -10 -120 0 -149 8 -149 39 0 6 -11 11 -25
11 -14 0 -25 5 -25 10 0 6 -7 10 -15 10 -9 0 -15 9 -15 25 0 14 -4 25 -10 25
-5 0 -10 18 -10 40 0 22 -4 40 -10 40 -6 0 -10 30 -10 70 0 56 -3 70 -15 70
-11 0 -15 11 -15 40 0 29 4 40 15 40 12 0 15 15 15 75 0 43 4 75 10 75 6 0 10
16 10 35 0 19 5 35 10 35 6 0 10 11 10 25 0 16 6 25 15 25 8 0 15 5 15 10 0 6
11 10 25 10 14 0 25 5 25 11 0 23 30 39 74 39 34 0 46 4 46 15 0 9 9 15 25 15
16 0 25 -6 25 -15z"/>
<path d="M29790 4815 c0 -8 -7 -15 -15 -15 -13 0 -15 -75 -15 -615 0 -540 2
-615 15 -615 9 0 15 -9 15 -25 0 -20 5 -25 25 -25 22 0 25 4 25 35 0 19 5 35
10 35 7 0 10 208 10 605 0 397 -3 605 -10 605 -5 0 -10 7 -10 15 0 9 -9 15
-25 15 -16 0 -25 -6 -25 -15z"/>
<path d="M20170 4170 c0 -553 2 -630 15 -630 8 0 15 -4 15 -10 0 -5 11 -10 25
-10 24 0 25 2 25 75 0 43 4 75 10 75 7 0 10 178 10 515 0 337 -3 515 -10 515
-14 0 -12 27 3 34 10 5 10 7 0 12 -7 3 -13 17 -13 30 0 21 -4 24 -40 24 l-40
0 0 -630z"/>
<path d="M23950 4185 c0 -540 2 -615 15 -615 9 0 15 -9 15 -25 0 -20 5 -25 25
-25 24 0 25 3 25 60 0 33 4 60 10 60 7 0 10 195 10 566 0 625 3 594 -64 594
l-36 0 0 -615z"/>
<path d="M28010 4540 c0 -218 -2 -260 -14 -260 -8 0 -17 -6 -20 -12 -5 -10 -7
-10 -12 0 -3 6 -12 12 -20 12 -8 0 -14 5 -14 11 0 17 -27 39 -49 39 -12 0 -21
6 -21 15 0 9 -9 15 -25 15 -14 0 -25 5 -25 10 0 6 -48 10 -125 10 -77 0 -125
-4 -125 -10 0 -5 -11 -10 -25 -10 -16 0 -25 -6 -25 -15 0 -9 -9 -15 -21 -15
-25 0 -49 -22 -49 -45 0 -19 -23 -45 -39 -45 -6 0 -11 -18 -11 -40 0 -22 -4
-40 -10 -40 -6 0 -10 -77 -10 -210 0 -133 4 -210 10 -210 6 0 10 -11 10 -25 0
-16 6 -25 15 -25 9 0 15 -9 15 -23 0 -12 9 -29 20 -37 11 -8 20 -25 20 -37 0
-18 6 -23 25 -23 16 0 25 -6 25 -15 0 -9 9 -15 25 -15 14 0 25 -4 25 -10 0 -5
11 -10 25 -10 16 0 25 -6 25 -15 0 -12 17 -15 90 -15 73 0 90 3 90 15 0 10 11
15 35 15 19 0 35 5 35 10 0 6 7 10 15 10 8 0 15 6 15 13 0 7 9 19 20 27 11 8
20 20 20 27 0 7 6 13 14 13 8 0 17 6 20 13 5 10 7 10 12 0 3 -7 12 -13 20 -13
9 0 14 -12 14 -36 0 -32 18 -64 35 -64 4 0 13 6 21 14 12 12 14 111 14 640 l0
626 -35 0 -35 0 0 -260z m-220 -195 c0 -9 9 -15 25 -15 14 0 25 -4 25 -10 0
-5 11 -10 25 -10 20 0 25 -5 25 -25 0 -18 5 -25 20 -25 15 0 20 -7 20 -25 0
-16 6 -25 15 -25 10 0 15 -11 15 -35 0 -19 5 -35 10 -35 6 0 10 -22 10 -50 0
-38 4 -50 15 -50 12 0 15 -15 15 -75 0 -60 -3 -75 -15 -75 -12 0 -15 -15 -15
-75 0 -43 -4 -75 -10 -75 -5 0 -10 -11 -10 -25 0 -16 -6 -25 -15 -25 -9 0 -15
-9 -15 -23 0 -12 -9 -29 -20 -37 -11 -8 -20 -20 -20 -27 0 -7 -7 -13 -15 -13
-8 0 -15 -4 -15 -10 0 -5 -16 -10 -35 -10 -24 0 -35 -5 -35 -15 0 -12 -14 -15
-65 -15 -51 0 -65 3 -65 15 0 10 -11 15 -35 15 -19 0 -35 5 -35 10 0 6 -7 10
-15 10 -8 0 -15 5 -15 11 0 14 -25 39 -39 39 -6 0 -11 7 -11 15 0 8 -4 15 -10
15 -5 0 -10 11 -10 25 0 16 -6 25 -15 25 -9 0 -15 9 -15 25 0 14 -4 25 -10 25
-6 0 -10 63 -10 170 0 107 4 170 10 170 6 0 10 18 10 40 0 29 4 40 15 40 9 0
15 9 15 21 0 19 21 49 35 49 10 0 35 28 35 39 0 6 7 11 15 11 8 0 15 5 15 10
0 6 11 10 25 10 16 0 25 6 25 15 0 12 15 15 75 15 60 0 75 -3 75 -15z"/>
<path d="M19550 4740 c0 -6 -30 -10 -70 -10 -56 0 -70 -3 -70 -15 0 -11 -11
-15 -40 -15 -22 0 -40 -4 -40 -10 0 -5 -16 -10 -35 -10 -24 0 -35 -5 -35 -15
0 -8 -7 -15 -15 -15 -8 0 -15 -4 -15 -10 0 -5 -9 -10 -21 -10 -22 0 -49 -22
-49 -39 0 -6 -5 -11 -11 -11 -14 0 -39 -25 -39 -39 0 -6 -5 -11 -11 -11 -17 0
-39 -27 -39 -49 0 -12 -6 -21 -15 -21 -9 0 -15 -9 -15 -25 0 -14 -4 -25 -10
-25 -5 0 -10 -11 -10 -25 0 -14 -4 -25 -10 -25 -5 0 -10 -22 -10 -50 0 -38 -4
-50 -15 -50 -13 0 -15 -24 -15 -160 0 -136 2 -160 15 -160 11 0 15 -11 15 -40
0 -22 5 -40 10 -40 6 0 10 -9 10 -20 0 -11 5 -20 10 -20 6 0 10 -11 10 -25 0
-16 6 -25 15 -25 9 0 15 -9 15 -25 0 -14 5 -25 10 -25 6 0 10 -7 10 -15 0 -8
5 -15 11 -15 14 0 39 -25 39 -39 0 -6 5 -11 11 -11 14 0 39 -25 39 -39 0 -6
11 -11 25 -11 14 0 25 -4 25 -10 0 -5 7 -10 15 -10 8 0 15 -7 15 -15 0 -10 11
-15 35 -15 19 0 35 -4 35 -10 0 -5 18 -10 40 -10 29 0 40 -4 40 -15 0 -13 24
-15 160 -15 136 0 160 2 160 15 0 10 11 15 35 15 19 0 35 5 35 10 0 6 7 10 15
10 8 0 15 7 15 15 0 13 -30 15 -210 15 -133 0 -210 4 -210 10 0 6 -18 10 -40
10 -29 0 -40 4 -40 15 0 9 -9 15 -21 15 -22 0 -49 22 -49 39 0 6 -7 11 -15 11
-8 0 -15 5 -15 10 0 6 -11 10 -25 10 -14 0 -25 5 -25 11 0 14 -25 39 -39 39
-6 0 -11 11 -11 25 0 14 -4 25 -10 25 -5 0 -10 16 -10 35 0 24 -5 35 -15 35
-9 0 -15 9 -15 25 0 14 -4 25 -10 25 -6 0 -10 32 -10 75 0 60 -3 75 -15 75
-12 0 -15 14 -15 65 0 51 3 65 15 65 12 0 15 13 15 60 0 33 4 60 10 60 6 0 10
16 10 35 0 24 5 35 15 35 9 0 15 9 15 25 0 14 5 25 10 25 6 0 10 7 10 15 0 8
5 15 11 15 17 0 39 27 39 49 0 12 6 21 15 21 8 0 15 7 15 15 0 9 9 15 21 15
22 0 49 22 49 39 0 6 11 11 25 11 14 0 25 5 25 10 0 6 11 10 25 10 14 0 25 5
25 10 0 6 82 10 225 10 l225 0 0 25 c0 20 -5 25 -25 25 -16 0 -25 6 -25 15 0
12 -14 15 -65 15 -37 0 -65 4 -65 10 0 6 -22 10 -50 10 -27 0 -50 -4 -50 -10z"/>
<path d="M23090 4125 l0 -605 35 0 35 0 0 85 c0 69 3 85 15 85 13 0 15 26 15
171 0 134 3 173 14 185 16 16 86 19 86 4 0 -6 27 -10 60 -10 33 0 60 4 60 10
0 6 27 10 60 10 47 0 60 3 60 15 0 9 9 15 25 15 14 0 25 5 25 10 0 6 7 10 15
10 8 0 15 5 15 11 0 17 27 39 49 39 16 0 21 6 21 25 0 16 6 25 15 25 9 0 15 9
15 25 0 14 5 25 10 25 6 0 10 48 10 125 0 77 -4 125 -10 125 -5 0 -10 11 -10
25 0 16 -6 25 -15 25 -9 0 -15 9 -15 21 0 22 -22 49 -39 49 -6 0 -11 5 -11 10
0 6 -11 10 -25 10 -16 0 -25 6 -25 15 0 9 -9 15 -25 15 -14 0 -25 5 -25 10 0
6 -30 10 -70 10 -56 0 -70 3 -70 15 0 13 -23 15 -150 15 l-150 0 0 -605z m350
515 c0 -5 20 -10 45 -10 25 0 45 -4 45 -10 0 -5 7 -10 15 -10 8 0 15 -5 15
-11 0 -14 25 -39 39 -39 6 0 11 -7 11 -15 0 -8 5 -15 10 -15 6 0 10 -16 10
-35 0 -24 5 -35 15 -35 12 0 15 -15 15 -75 0 -60 -3 -75 -15 -75 -10 0 -15
-11 -15 -35 0 -19 -4 -35 -10 -35 -5 0 -10 -7 -10 -15 0 -8 -5 -15 -11 -15
-14 0 -39 -25 -39 -39 0 -6 -18 -11 -40 -11 -22 0 -40 -4 -40 -10 0 -6 -43
-10 -110 -10 -91 0 -110 -3 -110 -15 0 -8 -4 -15 -10 -15 -5 0 -10 7 -10 15 0
9 -9 15 -25 15 -20 0 -25 5 -25 25 0 16 -6 25 -15 25 -8 0 -15 5 -15 10 0 6 7
10 15 10 9 0 15 9 15 25 0 16 -6 25 -15 25 -13 0 -15 24 -15 160 0 136 2 160
15 160 8 0 15 9 15 20 0 43 18 49 138 50 68 0 112 -4 112 -10z"/>
<path d="M705 4464 c-79 -4 -308 -23 -363 -30 -24 -3 -52 -14 -63 -25 -19 -19
-19 -45 -19 -1034 0 -1002 0 -1015 20 -1035 18 -18 33 -20 160 -20 127 0 142
2 160 20 19 19 20 33 20 423 l0 402 173 -3 c195 -5 246 -11 258 -32 5 -8 22
-44 38 -80 154 -348 187 -423 212 -478 16 -35 29 -65 29 -67 0 -18 83 -174 95
-179 28 -10 305 -7 326 4 21 12 26 58 9 88 -11 20 -140 311 -140 316 0 2 -20
47 -45 100 -25 53 -45 99 -45 101 0 3 -13 34 -30 70 -16 36 -30 67 -30 69 0 2
-18 42 -40 89 -42 88 -47 107 -29 107 23 0 157 96 205 148 52 54 111 158 135
237 17 51 16 285 0 345 -68 251 -206 380 -486 450 -48 12 -413 22 -550 14z
m475 -349 c143 -59 210 -158 210 -313 0 -157 -88 -264 -255 -308 -52 -14 -423
-20 -484 -8 l-31 7 0 313 0 313 33 6 c60 10 141 13 312 10 138 -2 178 -5 215
-20z"/>
<path d="M24550 4395 c0 -11 -12 -15 -50 -15 -27 0 -50 -4 -50 -10 0 -5 -11
-10 -25 -10 -16 0 -25 -6 -25 -15 0 -8 -7 -15 -15 -15 -8 0 -15 -4 -15 -10 0
-5 23 -10 50 -10 28 0 50 5 50 10 0 6 18 10 40 10 29 0 40 4 40 15 0 11 12 15
50 15 38 0 50 -4 50 -15 0 -11 12 -15 46 -15 44 0 74 -16 74 -39 0 -6 5 -11
11 -11 17 0 39 -27 39 -49 0 -12 5 -21 10 -21 6 0 10 -35 10 -85 0 -50 -4 -85
-10 -85 -5 0 -10 -7 -10 -15 0 -13 -22 -15 -135 -15 -83 0 -135 -4 -135 -10 0
-5 -22 -10 -50 -10 -38 0 -50 -4 -50 -15 0 -9 -9 -15 -25 -15 -14 0 -25 -4
-25 -10 0 -5 -11 -10 -25 -10 -16 0 -25 -6 -25 -15 0 -8 -4 -15 -10 -15 -5 0
-10 -11 -10 -25 0 -16 -6 -25 -15 -25 -8 0 -15 -9 -15 -20 0 -11 -4 -20 -10
-20 -6 0 -10 -37 -10 -90 0 -53 4 -90 10 -90 6 0 10 -11 10 -25 0 -14 5 -25
11 -25 14 0 39 -25 39 -39 0 -6 11 -11 25 -11 14 0 25 -4 25 -10 0 -5 11 -10
25 -10 16 0 25 -6 25 -15 0 -12 16 -15 85 -15 69 0 85 3 85 15 0 11 11 15 36
15 35 0 64 18 64 39 0 6 7 11 15 11 8 0 15 5 15 10 0 6 -7 10 -15 10 -8 0 -15
-4 -15 -10 0 -5 -16 -10 -35 -10 -24 0 -35 -5 -35 -15 0 -12 -14 -15 -65 -15
-51 0 -65 3 -65 15 0 11 -12 15 -46 15 -44 0 -74 16 -74 39 0 6 -7 11 -15 11
-9 0 -15 9 -15 25 0 14 -4 25 -10 25 -6 0 -10 27 -10 60 0 33 4 60 10 60 6 0
10 16 10 35 0 24 5 35 15 35 8 0 15 5 15 11 0 17 27 39 49 39 12 0 21 6 21 15
0 11 11 15 40 15 22 0 40 5 40 10 0 6 27 10 60 10 47 0 60 3 60 15 0 12 15 15
75 15 60 0 75 -3 75 -15 0 -8 5 -15 10 -15 6 0 10 -38 10 -95 0 -57 -4 -95
-10 -95 -5 0 -10 -18 -10 -40 0 -22 -4 -40 -10 -40 -5 0 -10 -11 -10 -25 0
-18 5 -25 20 -25 11 0 20 -4 20 -10 0 -5 7 -10 15 -10 11 0 15 -12 15 -50 0
-47 2 -50 25 -50 l25 0 0 345 c0 300 -2 345 -15 345 -10 0 -15 11 -15 35 0 19
-4 35 -10 35 -5 0 -10 7 -10 15 0 8 -5 15 -11 15 -14 0 -39 25 -39 39 0 6 -11
11 -25 11 -14 0 -25 5 -25 10 0 6 -22 10 -50 10 -38 0 -50 4 -50 15 0 12 -13
15 -60 15 -47 0 -60 -3 -60 -15z"/>
<path d="M26200 4395 c0 -10 -11 -15 -35 -15 -19 0 -35 -4 -35 -10 0 -5 -11
-10 -25 -10 -16 0 -25 -6 -25 -15 0 -8 -4 -15 -10 -15 -5 0 -10 -4 -10 -10 0
-5 20 -10 45 -10 25 0 45 5 45 10 0 6 23 10 50 10 38 0 50 4 50 15 0 9 9 15
25 15 16 0 25 -6 25 -15 0 -11 12 -15 50 -15 28 0 50 -4 50 -10 0 -5 11 -10
25 -10 16 0 25 -6 25 -15 0 -8 5 -15 11 -15 20 0 39 -29 39 -59 0 -21 5 -31
15 -31 12 0 15 -15 15 -75 0 -60 -3 -75 -15 -75 -8 0 -15 -6 -15 -14 0 -8 -6
-17 -12 -20 -10 -5 -10 -7 0 -12 6 -3 12 -12 12 -20 0 -8 7 -14 15 -14 12 0
15 -19 15 -110 0 -91 -3 -110 -15 -110 -9 0 -15 -9 -15 -25 0 -14 -4 -25 -10
-25 -5 0 -10 -11 -10 -25 0 -19 5 -25 21 -25 33 0 49 -25 49 -74 0 -42 2 -46
25 -46 l25 0 0 360 c0 313 -2 360 -15 360 -8 0 -15 9 -15 20 0 11 -4 20 -10
20 -5 0 -10 5 -10 11 0 14 -25 39 -39 39 -6 0 -11 5 -11 11 0 23 -30 39 -74
39 -34 0 -46 4 -46 15 0 12 -17 15 -90 15 -73 0 -90 -3 -90 -15z"/>
<path d="M28650 4395 c0 -11 -12 -15 -50 -15 -27 0 -50 -4 -50 -10 0 -5 -11
-10 -25 -10 -14 0 -25 -5 -25 -11 0 -14 -25 -39 -39 -39 -6 0 -11 -5 -11 -11
0 -11 -25 -39 -35 -39 -14 0 -35 -30 -35 -49 0 -12 -6 -21 -15 -21 -11 0 -15
-11 -15 -40 0 -22 -4 -40 -10 -40 -6 0 -10 -63 -10 -170 0 -107 4 -170 10
-170 6 0 10 -18 10 -40 0 -22 5 -40 11 -40 17 0 39 -27 39 -49 0 -12 6 -21 15
-21 8 0 15 -5 15 -11 0 -14 25 -39 39 -39 6 0 11 -7 11 -15 0 -9 9 -15 25 -15
14 0 25 -4 25 -10 0 -5 16 -10 35 -10 24 0 35 -5 35 -15 0 -12 19 -15 110 -15
91 0 110 3 110 15 0 11 11 15 40 15 22 0 40 5 40 10 0 6 11 10 25 10 16 0 25
6 25 15 0 11 -12 15 -50 15 -38 0 -50 -4 -50 -15 0 -12 -16 -15 -85 -15 -69 0
-85 3 -85 15 0 11 -11 15 -40 15 -22 0 -40 5 -40 10 0 6 -11 10 -25 10 -16 0
-25 6 -25 15 0 9 -9 15 -25 15 -19 0 -25 5 -25 21 0 22 -22 49 -39 49 -6 0
-11 11 -11 25 0 14 -4 25 -10 25 -5 0 -10 23 -10 50 0 38 -4 50 -15 50 -10 0
-15 11 -15 35 0 24 5 35 15 35 13 0 15 21 15 125 0 77 4 125 10 125 6 0 10 11
10 25 0 16 6 25 15 25 8 0 15 5 15 11 0 11 25 39 35 39 10 0 35 28 35 39 0 6
11 11 25 11 14 0 25 5 25 10 0 6 11 10 25 10 16 0 25 6 25 15 0 11 12 15 50
15 38 0 50 -4 50 -15 0 -9 9 -15 25 -15 14 0 25 -4 25 -10 0 -5 11 -10 25 -10
16 0 25 -6 25 -15 0 -8 5 -15 10 -15 6 0 10 -9 10 -20 0 -11 7 -20 15 -20 9 0
15 -9 15 -25 0 -14 5 -25 10 -25 6 0 10 -22 10 -50 0 -38 4 -50 15 -50 11 0
15 -11 15 -40 0 -29 -4 -40 -15 -40 -8 0 -15 -4 -15 -10 0 -6 -27 -10 -60 -10
-61 0 -73 -9 -46 -36 10 -10 39 -14 96 -14 57 0 86 4 96 14 17 17 21 186 4
186 -5 0 -10 16 -10 35 0 24 -5 35 -15 35 -9 0 -15 9 -15 21 0 22 -22 49 -39
49 -6 0 -11 5 -11 11 0 14 -25 39 -39 39 -6 0 -11 7 -11 15 0 9 -9 15 -25 15
-14 0 -25 5 -25 10 0 6 -27 10 -60 10 -47 0 -60 3 -60 15 0 9 -9 15 -25 15
-16 0 -25 -6 -25 -15z"/>
<path d="M30410 4395 c0 -12 -14 -15 -65 -15 -37 0 -65 -4 -65 -10 0 -5 -11
-10 -25 -10 -20 0 -25 -5 -25 -25 0 -20 5 -25 25 -25 14 0 25 5 25 10 0 6 23
10 50 10 38 0 50 4 50 15 0 12 14 15 65 15 51 0 65 -3 65 -15 0 -10 10 -15 31
-15 30 0 59 -19 59 -39 0 -6 5 -11 11 -11 20 0 39 -29 39 -59 0 -21 5 -31 15
-31 12 0 15 -15 15 -75 0 -60 -3 -75 -15 -75 -11 0 -15 -11 -15 -40 0 -29 4
-40 15 -40 12 0 15 -19 15 -110 0 -91 -3 -110 -15 -110 -11 0 -15 -12 -15 -50
0 -29 5 -50 11 -50 23 0 39 -30 39 -74 0 -42 2 -46 25 -46 l25 0 0 345 c0 223
-4 345 -10 345 -5 0 -10 16 -10 35 0 24 -5 35 -15 35 -8 0 -15 5 -15 11 0 14
-25 39 -39 39 -6 0 -11 7 -11 15 0 9 -9 15 -25 15 -14 0 -25 5 -25 10 0 6 -27
10 -60 10 -47 0 -60 3 -60 15 0 10 -11 15 -35 15 -24 0 -35 -5 -35 -15z"/>
<path d="M20583 4365 c-16 -18 -19 -625 -3 -625 6 0 10 -22 10 -50 0 -29 5
-50 11 -50 17 0 39 -27 39 -49 0 -12 6 -21 15 -21 8 0 15 -7 15 -15 0 -9 9
-15 25 -15 14 0 25 -4 25 -10 0 -5 11 -10 25 -10 16 0 25 -6 25 -15 0 -12 16
-15 85 -15 69 0 85 3 85 15 0 10 11 15 35 15 19 0 35 5 35 10 0 6 11 10 25 10
16 0 25 6 25 15 0 8 5 15 11 15 17 0 39 27 39 49 0 18 6 21 40 21 l40 0 0 -60
c0 -57 1 -60 25 -60 23 0 25 3 25 50 0 28 5 50 10 50 6 0 10 125 10 355 0 230
-4 355 -10 355 -5 0 -10 11 -10 25 0 20 -5 25 -25 25 -14 0 -25 -4 -25 -10 0
-5 -7 -10 -15 -10 -13 0 -15 -41 -15 -310 0 -200 -4 -310 -10 -310 -5 0 -10
-11 -10 -25 0 -16 -6 -25 -15 -25 -9 0 -15 -9 -15 -21 0 -22 -22 -49 -39 -49
-6 0 -11 -5 -11 -11 0 -21 -29 -39 -64 -39 -25 0 -36 -4 -36 -15 0 -12 -13
-15 -60 -15 -47 0 -60 3 -60 15 0 10 -11 15 -35 15 -19 0 -35 5 -35 10 0 6 -7
10 -15 10 -8 0 -15 5 -15 11 0 14 -25 39 -39 39 -6 0 -11 18 -11 40 0 22 -4
40 -10 40 -6 0 -10 105 -10 295 0 256 -2 295 -15 295 -10 0 -15 11 -15 35 0
30 -3 35 -22 35 -13 -1 -29 -7 -35 -15z"/>
<path d="M25220 4370 c0 -5 -7 -10 -15 -10 -8 0 -15 -7 -15 -15 0 -12 18 -15
100 -15 60 0 100 -4 100 -10 0 -5 16 -10 35 -10 19 0 35 5 35 10 0 17 169 13
186 -4 16 -17 19 -56 4 -56 -5 0 -10 -11 -10 -25 0 -14 -5 -25 -11 -25 -14 0
-39 -25 -39 -39 0 -6 -7 -11 -15 -11 -9 0 -15 -9 -15 -21 0 -22 -22 -49 -39
-49 -6 0 -11 -5 -11 -11 0 -14 -25 -39 -39 -39 -6 0 -11 -11 -11 -25 0 -14 -4
-25 -10 -25 -5 0 -10 -7 -10 -15 0 -8 -7 -15 -15 -15 -9 0 -15 -9 -15 -21 0
-22 -22 -49 -39 -49 -6 0 -11 -7 -11 -15 0 -8 -4 -15 -10 -15 -5 0 -10 -9 -10
-20 0 -11 -7 -20 -15 -20 -8 0 -15 -5 -15 -11 0 -14 -25 -39 -39 -39 -6 0 -11
-7 -11 -15 0 -8 -4 -15 -10 -15 -5 0 -10 -9 -10 -21 0 -22 -22 -49 -39 -49 -6
0 -11 -7 -11 -15 0 -8 -4 -15 -10 -15 -5 0 -10 -11 -10 -25 0 -16 -6 -25 -15
-25 -10 0 -15 -11 -15 -35 0 -31 3 -35 25 -35 16 0 25 -6 25 -15 0 -9 9 -15
25 -15 16 0 25 6 25 15 0 13 36 15 260 15 l260 0 0 25 0 25 -250 0 -250 0 0
35 c0 24 5 35 15 35 8 0 15 7 15 15 0 8 5 15 10 15 6 0 10 11 10 25 0 14 5 25
11 25 14 0 39 25 39 39 0 6 5 11 11 11 17 0 39 27 39 49 0 12 5 21 11 21 14 0
39 25 39 39 0 6 7 11 15 11 9 0 15 9 15 21 0 22 22 49 39 49 6 0 11 7 11 15 0
8 5 15 10 15 6 0 10 11 10 25 0 14 5 25 11 25 17 0 39 27 39 49 0 12 6 21 15
21 8 0 15 5 15 11 0 14 25 39 39 39 6 0 11 7 11 15 0 8 5 15 10 15 6 0 10 9
10 21 0 22 22 49 39 49 6 0 11 11 11 25 0 14 5 25 10 25 15 0 12 39 -4 56 -12
11 -63 14 -280 14 -171 0 -266 -4 -266 -10z"/>
<path d="M3935 4205 c-49 -13 -99 -24 -111 -24 -11 -1 -30 -11 -42 -24 -20
-21 -22 -34 -22 -155 l0 -132 -84 0 c-112 0 -116 -5 -116 -155 0 -104 2 -113
23 -133 20 -19 35 -22 100 -22 l77 0 0 -408 c0 -446 8 -549 53 -659 42 -102
102 -154 221 -191 97 -29 388 -16 466 22 24 11 25 16 28 116 5 181 3 183 -162
174 -173 -10 -222 10 -246 95 -6 21 -10 202 -10 444 l0 407 190 0 c241 0 230
-7 230 153 0 166 13 157 -225 157 l-194 0 -3 166 c-4 216 -2 214 -173 169z"/>
<path d="M10825 4216 c-27 -7 -77 -19 -110 -26 -65 -14 -96 -27 -107 -44 -4
-6 -8 -71 -8 -143 l0 -133 -84 0 c-111 0 -111 0 -111 -157 0 -152 1 -153 117
-153 l78 0 0 -387 c1 -506 9 -594 73 -722 62 -125 245 -188 472 -161 44 5 106
12 137 16 40 5 63 13 78 29 20 21 21 28 12 139 -5 67 -14 122 -21 129 -9 8
-51 11 -144 9 -153 -4 -202 8 -229 54 -29 49 -38 184 -38 546 l0 348 195 0
c248 0 235 -8 235 158 0 102 -3 121 -18 135 -15 14 -49 17 -213 19 l-194 3 -3
164 c-1 101 -7 170 -13 178 -14 16 -38 16 -104 -1z"/>
<path d="M26250 4000 c0 -6 -27 -10 -60 -10 -47 0 -60 -3 -60 -15 0 -9 -9 -15
-25 -15 -14 0 -25 -4 -25 -10 0 -5 -11 -10 -25 -10 -14 0 -25 -5 -25 -11 0
-14 -25 -39 -39 -39 -6 0 -11 -11 -11 -25 0 -14 -4 -25 -10 -25 -6 0 -10 -40
-10 -100 0 -60 4 -100 10 -100 6 0 10 -11 10 -25 0 -14 5 -25 11 -25 14 0 39
-25 39 -39 0 -6 11 -11 25 -11 14 0 25 -4 25 -10 0 -5 11 -10 25 -10 16 0 25
-6 25 -15 0 -12 16 -15 85 -15 69 0 85 3 85 15 0 9 9 15 25 15 14 0 25 5 25
10 0 6 11 10 25 10 16 0 25 6 25 15 0 10 -11 15 -35 15 -24 0 -35 -5 -35 -15
0 -12 -14 -15 -65 -15 -51 0 -65 3 -65 15 0 11 -12 15 -45 15 -25 0 -45 5 -45
10 0 6 -7 10 -15 10 -8 0 -15 7 -15 15 0 8 -4 15 -10 15 -5 0 -10 11 -10 25 0
16 -6 25 -15 25 -11 0 -15 12 -15 50 0 38 4 50 15 50 10 0 15 11 15 35 0 19 5
35 10 35 6 0 10 11 10 25 0 19 5 25 21 25 22 0 49 22 49 39 0 6 18 11 40 11
22 0 40 5 40 10 0 6 23 10 50 10 38 0 50 4 50 15 0 10 11 15 35 15 19 0 35 5
35 10 0 6 -32 10 -75 10 -43 0 -75 -4 -75 -10z"/>
<path d="M30410 4000 c0 -6 -28 -10 -65 -10 -51 0 -65 -3 -65 -15 0 -9 -9 -15
-25 -15 -14 0 -25 -4 -25 -10 0 -5 -11 -10 -25 -10 -14 0 -25 -5 -25 -11 0
-14 -25 -39 -39 -39 -6 0 -11 -11 -11 -25 0 -14 -4 -25 -10 -25 -6 0 -10 -40
-10 -100 0 -60 4 -100 10 -100 6 0 10 -11 10 -25 0 -14 5 -25 11 -25 14 0 39
-25 39 -39 0 -6 11 -11 25 -11 14 0 25 -4 25 -10 0 -5 11 -10 25 -10 16 0 25
-6 25 -15 0 -12 15 -15 75 -15 60 0 75 3 75 15 0 11 11 15 40 15 22 0 40 5 40
10 0 6 11 10 25 10 16 0 25 6 25 15 0 9 -9 15 -25 15 -16 0 -25 -6 -25 -15 0
-12 -17 -15 -90 -15 -73 0 -90 3 -90 15 0 10 -11 15 -35 15 -19 0 -35 5 -35
10 0 6 -7 10 -15 10 -8 0 -15 7 -15 15 0 8 -4 15 -10 15 -5 0 -10 11 -10 25 0
16 -6 25 -15 25 -12 0 -15 13 -15 60 0 47 3 60 15 60 9 0 15 9 15 21 0 22 22
49 39 49 6 0 11 11 11 25 0 20 5 25 25 25 16 0 25 6 25 15 0 9 9 15 25 15 14
0 25 5 25 10 0 6 27 10 60 10 47 0 60 3 60 15 0 11 11 15 40 15 22 0 40 5 40
10 0 6 -32 10 -75 10 -43 0 -75 -4 -75 -10z"/>
<path d="M2580 3904 c-14 -2 -52 -9 -85 -15 -87 -16 -198 -65 -260 -115 -56
-46 -145 -160 -145 -186 0 -8 -4 -18 -9 -23 -12 -14 -46 -129 -62 -210 -18
-92 -18 -407 0 -500 31 -167 84 -293 161 -383 45 -52 145 -115 235 -147 132
-47 438 -47 570 0 221 78 340 236 392 515 22 118 21 407 0 515 -28 135 -34
156 -73 234 -73 148 -198 248 -367 293 -70 19 -298 33 -357 22z m255 -328 c91
-28 154 -100 184 -212 30 -113 30 -425 0 -537 -44 -161 -136 -227 -319 -227
-117 0 -180 21 -241 80 -62 60 -87 132 -100 287 -24 287 23 503 126 575 78 55
232 70 350 34z"/>
<path d="M5260 3900 c-47 -5 -137 -17 -200 -26 -63 -9 -134 -18 -157 -21 -69
-9 -75 -23 -71 -157 4 -160 -9 -151 219 -137 383 25 411 25 467 7 89 -30 126
-97 120 -216 l-3 -65 -150 -13 c-382 -32 -473 -49 -572 -109 -80 -48 -99 -68
-136 -142 -42 -85 -59 -205 -45 -319 25 -212 120 -341 289 -392 70 -22 246
-28 322 -11 23 5 69 15 102 22 33 7 101 27 151 44 l90 32 35 -25 c45 -32 92
-52 159 -68 47 -11 58 -11 78 2 l23 15 -3 617 c-4 682 -2 658 -70 772 -79 130
-211 190 -433 195 -71 2 -168 0 -215 -5z m378 -1072 l-3 -183 -70 -17 c-90
-23 -256 -48 -312 -48 -114 0 -173 70 -173 205 0 104 44 171 128 195 44 13
210 27 340 29 l92 1 -2 -182z"/>
<path d="M7960 3900 c-88 -9 -180 -21 -321 -42 -112 -17 -116 -22 -108 -168 7
-144 12 -150 120 -139 114 12 407 29 474 28 88 -1 137 -23 183 -83 19 -25 22
-41 22 -121 l0 -91 -152 -12 c-355 -29 -427 -41 -534 -91 -153 -72 -217 -193
-216 -411 1 -166 40 -276 128 -364 85 -85 171 -116 326 -116 59 0 131 5 160
10 130 26 230 53 297 82 l44 18 31 -23 c43 -32 100 -57 164 -72 62 -15 83 -8
101 32 15 32 15 989 0 1121 -27 247 -121 371 -324 429 -62 18 -281 25 -395 13z
m370 -1074 l0 -184 -72 -16 c-220 -49 -338 -57 -397 -26 -70 35 -106 153 -77
252 17 60 52 99 110 123 41 17 182 31 344 34 l92 1 0 -184z"/>
<path d="M9480 3895 c-155 -28 -231 -66 -325 -160 -138 -138 -195 -325 -195
-636 0 -420 120 -661 377 -762 112 -44 378 -63 524 -38 30 6 88 15 129 21 130
20 170 31 180 50 14 26 12 214 -2 245 -15 34 -46 40 -127 27 -288 -49 -463
-54 -551 -14 -43 19 -103 74 -126 117 -38 69 -48 139 -48 350 -1 190 1 217 21
281 42 134 109 193 243 214 77 13 92 12 464 -32 l98 -11 19 24 c15 20 19 42
19 135 0 124 -6 136 -70 147 -19 3 -89 15 -155 27 -154 27 -374 34 -475 15z"/>
<path d="M7075 3873 c-78 -18 -229 -86 -297 -134 -14 -11 -29 -19 -32 -19 -3
0 -6 24 -6 53 0 40 -5 59 -20 75 -19 21 -30 22 -159 22 -121 0 -140 -2 -154
-18 -16 -17 -17 -84 -17 -760 0 -660 2 -742 16 -756 12 -13 41 -16 152 -16 75
0 142 4 148 8 32 21 34 52 34 555 l0 504 53 36 c103 71 264 137 334 137 23 0
42 8 58 25 24 23 25 30 25 137 0 139 -9 159 -73 157 -23 -1 -51 -3 -62 -6z"/>
<path d="M31667 3064 c-9 -10 2 -24 19 -24 8 0 14 7 14 15 0 15 -21 21 -33 9z"/>
<path d="M20960 2765 c0 -31 3 -35 25 -35 22 0 25 4 25 35 0 31 -3 35 -25 35
-22 0 -25 -4 -25 -35z"/>
<path d="M23040 2765 c0 -31 3 -35 25 -35 22 0 25 4 25 35 0 31 -3 35 -25 35
-22 0 -25 -4 -25 -35z"/>
<path d="M31820 2765 c0 -31 3 -35 25 -35 22 0 25 4 25 35 0 31 -3 35 -25 35
-22 0 -25 -4 -25 -35z"/>
<path d="M26300 2765 c0 -10 -11 -15 -35 -15 -19 0 -35 -4 -35 -10 0 -5 -11
-10 -25 -10 -14 0 -25 -4 -25 -10 0 -5 -11 -10 -25 -10 -16 0 -25 -6 -25 -15
0 -9 -9 -15 -21 -15 -22 0 -49 -22 -49 -39 0 -6 -5 -11 -11 -11 -14 0 -39 -25
-39 -39 0 -6 -7 -11 -15 -11 -9 0 -15 -9 -15 -21 0 -22 -22 -49 -39 -49 -6 0
-11 -11 -11 -25 0 -14 -4 -25 -10 -25 -5 0 -10 -18 -10 -40 0 -29 -4 -40 -15
-40 -10 0 -15 -11 -15 -35 0 -19 -4 -35 -10 -35 -6 0 -10 -57 -10 -150 0 -93
4 -150 10 -150 6 0 10 -16 10 -35 0 -24 5 -35 15 -35 10 0 15 -11 15 -35 0
-19 5 -35 10 -35 6 0 10 -11 10 -25 0 -16 6 -25 15 -25 8 0 15 -7 15 -15 0 -8
5 -15 10 -15 6 0 10 -11 10 -25 0 -14 5 -25 11 -25 14 0 39 -25 39 -39 0 -6 5
-11 11 -11 14 0 39 -25 39 -39 0 -6 9 -11 21 -11 22 0 49 -22 49 -39 0 -6 18
-11 40 -11 22 0 40 -4 40 -10 0 -5 16 -10 35 -10 19 0 35 -4 35 -10 0 -6 57
-10 150 -10 93 0 150 4 150 10 0 6 21 10 46 10 40 0 74 16 74 35 0 10 -28 35
-39 35 -6 0 -11 -4 -11 -10 0 -6 -63 -10 -170 -10 -107 0 -170 4 -170 10 0 6
-18 10 -40 10 -29 0 -40 4 -40 15 0 9 -9 15 -25 15 -14 0 -25 5 -25 10 0 6
-11 10 -25 10 -14 0 -25 5 -25 11 0 17 -27 39 -49 39 -12 0 -21 6 -21 15 0 8
-4 15 -10 15 -5 0 -10 11 -10 25 0 14 -5 25 -11 25 -17 0 -39 27 -39 49 0 12
-6 21 -15 21 -10 0 -15 11 -15 35 0 19 -4 35 -10 35 -6 0 -10 28 -10 65 0 51
-3 65 -15 65 -12 0 -15 13 -15 60 0 47 3 60 15 60 12 0 15 15 15 75 0 43 4 75
10 75 6 0 10 16 10 35 0 24 5 35 15 35 9 0 15 9 15 25 0 14 5 25 10 25 6 0 10
7 10 15 0 8 7 15 15 15 9 0 15 9 15 21 0 22 22 49 39 49 6 0 11 5 11 11 0 17
27 39 49 39 12 0 21 5 21 11 0 23 30 39 74 39 34 0 46 4 46 15 0 13 30 15 210
15 116 0 210 3 210 6 0 13 -30 34 -49 34 -12 0 -21 6 -21 15 0 13 -26 15 -175
15 -149 0 -175 -2 -175 -15z"/>
<path d="M19373 2735 c-7 -8 -13 -23 -13 -35 0 -11 -7 -20 -15 -20 -9 0 -15
-9 -15 -25 0 -14 -4 -25 -10 -25 -5 0 -10 -16 -10 -35 0 -24 -5 -35 -15 -35
-9 0 -15 -9 -15 -25 0 -14 -4 -25 -10 -25 -5 0 -10 -18 -10 -40 0 -29 -4 -40
-15 -40 -9 0 -15 -9 -15 -25 0 -14 -4 -25 -10 -25 -5 0 -10 -16 -10 -35 0 -24
-5 -35 -15 -35 -9 0 -15 -9 -15 -25 0 -14 -4 -25 -10 -25 -5 0 -10 -16 -10
-35 0 -24 -5 -35 -15 -35 -9 0 -15 -9 -15 -25 0 -14 -4 -25 -10 -25 -5 0 -10
-18 -10 -40 0 -29 -4 -40 -15 -40 -9 0 -15 -9 -15 -25 0 -14 -4 -25 -10 -25
-5 0 -10 -16 -10 -35 0 -24 -5 -35 -15 -35 -9 0 -15 -9 -15 -25 0 -14 -4 -25
-10 -25 -5 0 -10 -11 -10 -25 0 -14 -4 -25 -10 -25 -5 0 -10 -16 -10 -35 0
-24 -5 -35 -15 -35 -9 0 -15 -9 -15 -25 0 -14 -4 -25 -10 -25 -5 0 -10 -18
-10 -40 0 -29 -4 -40 -15 -40 -10 0 -15 -11 -15 -35 0 -31 3 -35 25 -35 14 0
25 5 25 10 0 6 7 10 15 10 9 0 15 9 15 25 0 14 5 25 10 25 6 0 10 11 10 25 0
14 5 25 10 25 6 0 10 11 10 25 0 16 6 25 15 25 11 0 15 11 15 40 0 22 5 40 10
40 6 0 10 11 10 25 0 16 6 25 15 25 8 0 15 5 15 10 0 6 113 10 320 10 207 0
320 -4 320 -10 0 -5 7 -10 15 -10 11 0 15 -11 15 -40 0 -22 5 -40 10 -40 6 0
10 -11 10 -25 0 -16 6 -25 15 -25 10 0 15 -11 15 -35 0 -19 5 -35 10 -35 6 0
10 -11 10 -25 0 -16 6 -25 15 -25 9 0 15 -9 15 -25 0 -22 4 -25 35 -25 33 0
35 2 35 35 0 24 -5 35 -15 35 -11 0 -15 11 -15 40 0 22 -4 40 -10 40 -5 0 -10
16 -10 35 0 19 -4 35 -10 35 -5 0 -10 11 -10 25 0 16 -6 25 -15 25 -11 0 -15
11 -15 40 0 22 -4 40 -10 40 -5 0 -10 9 -10 20 0 11 -7 20 -15 20 -11 0 -15
11 -15 40 0 22 -4 40 -10 40 -5 0 -10 11 -10 25 0 16 -6 25 -15 25 -10 0 -15
11 -15 35 0 19 -4 35 -10 35 -5 0 -10 11 -10 25 0 16 -6 25 -15 25 -11 0 -15
11 -15 40 0 22 -4 40 -10 40 -5 0 -10 16 -10 35 0 24 -5 35 -15 35 -9 0 -15 9
-15 25 0 14 -4 25 -10 25 -5 0 -10 16 -10 35 0 24 -5 35 -15 35 -9 0 -15 9
-15 25 0 14 -4 25 -10 25 -5 0 -10 11 -10 25 0 16 -6 25 -15 25 -11 0 -15 11
-15 40 0 22 -4 40 -10 40 -5 0 -10 16 -10 35 0 24 -5 35 -15 35 -8 0 -15 5
-15 10 0 16 -113 12 -127 -5z m87 -100 c0 -14 5 -25 10 -25 6 0 10 -11 10 -25
0 -14 5 -25 10 -25 6 0 10 -18 10 -40 0 -29 4 -40 15 -40 9 0 15 -9 15 -25 0
-14 5 -25 10 -25 6 0 10 -16 10 -35 0 -24 5 -35 15 -35 9 0 15 -9 15 -25 0
-14 5 -25 10 -25 6 0 10 -16 10 -35 0 -24 5 -35 15 -35 9 0 15 -9 15 -25 0
-14 5 -25 10 -25 6 0 10 -18 10 -40 0 -29 4 -40 15 -40 10 0 15 -11 15 -35 0
-19 5 -35 10 -35 6 0 10 -11 10 -25 0 -14 -4 -25 -10 -25 -5 0 -10 -7 -10 -15
0 -13 -34 -15 -250 -15 -216 0 -250 2 -250 15 0 8 -4 15 -10 15 -5 0 -10 11
-10 25 0 14 5 25 10 25 6 0 10 23 10 50 0 38 4 50 15 50 9 0 15 9 15 25 0 14
5 25 10 25 6 0 10 11 10 25 0 16 6 25 15 25 10 0 15 11 15 35 0 19 5 35 10 35
6 0 10 11 10 25 0 16 6 25 15 25 10 0 15 11 15 35 0 19 5 35 10 35 6 0 10 18
10 40 0 29 4 40 15 40 9 0 15 9 15 25 0 14 5 25 10 25 6 0 10 11 10 25 0 16 6
25 15 25 9 0 15 9 15 25 0 20 5 25 25 25 20 0 25 -5 25 -25z"/>
<path d="M23820 2730 c-8 -11 -20 -20 -27 -20 -7 0 -13 -11 -13 -25 0 -14 5
-25 11 -25 17 0 39 27 39 49 0 12 6 21 15 21 8 0 15 5 15 10 0 17 -25 11 -40
-10z"/>
<path d="M21530 2445 c0 -10 -11 -15 -35 -15 -19 0 -35 -4 -35 -10 0 -5 -11
-10 -25 -10 -16 0 -25 -6 -25 -15 0 -8 -7 -15 -15 -15 -8 0 -15 -4 -15 -10 0
-5 18 -10 40 -10 22 0 40 5 40 10 0 6 55 10 145 10 90 0 145 -4 145 -10 0 -5
7 -10 15 -10 8 0 15 -5 15 -11 0 -14 25 -39 39 -39 6 0 11 -21 11 -50 0 -27 5
-50 10 -50 6 0 10 -27 10 -60 0 -33 -4 -60 -10 -60 -5 0 -10 -7 -10 -15 0 -13
-23 -15 -150 -15 -93 0 -150 -4 -150 -10 0 -5 -16 -10 -35 -10 -24 0 -35 -5
-35 -15 0 -9 -9 -15 -25 -15 -14 0 -25 -4 -25 -10 0 -5 -11 -10 -25 -10 -16 0
-25 -6 -25 -15 0 -8 -5 -15 -11 -15 -17 0 -39 -27 -39 -49 0 -12 -6 -21 -15
-21 -12 0 -15 -18 -15 -100 0 -82 3 -100 15 -100 9 0 15 -9 15 -21 0 -22 22
-49 39 -49 6 0 11 -5 11 -11 0 -23 30 -39 74 -39 25 0 46 -4 46 -10 0 -6 28
-10 65 -10 37 0 65 4 65 10 0 6 20 10 45 10 25 0 45 5 45 10 0 6 7 10 15 10 8
0 15 7 15 15 0 9 9 15 21 15 22 0 49 22 49 39 0 6 11 11 25 11 20 0 25 -5 25
-25 0 -16 6 -25 15 -25 9 0 15 -9 15 -25 0 -20 5 -25 25 -25 l25 0 0 360 c0
313 -2 360 -15 360 -8 0 -15 9 -15 20 0 11 -4 20 -10 20 -5 0 -10 7 -10 15 0
8 -5 15 -11 15 -14 0 -39 25 -39 39 0 6 -7 11 -15 11 -8 0 -15 5 -15 10 0 6
-16 10 -35 10 -24 0 -35 5 -35 15 0 12 -18 15 -100 15 -82 0 -100 -3 -100 -15z
m300 -420 c0 -8 5 -15 10 -15 6 0 10 -38 10 -95 0 -57 -4 -95 -10 -95 -5 0
-10 -18 -10 -40 0 -29 -4 -40 -15 -40 -9 0 -15 -9 -15 -21 0 -22 -22 -49 -39
-49 -6 0 -11 -5 -11 -11 0 -20 -29 -39 -59 -39 -21 0 -31 -5 -31 -15 0 -12
-15 -15 -75 -15 -60 0 -75 3 -75 15 0 11 -11 15 -36 15 -35 0 -64 18 -64 39 0
6 -7 11 -15 11 -10 0 -15 11 -15 35 0 19 -4 35 -10 35 -5 0 -10 18 -10 40 0
22 5 40 10 40 6 0 10 16 10 35 0 24 5 35 15 35 8 0 15 5 15 11 0 14 25 39 39
39 6 0 11 5 11 10 0 6 11 10 25 10 16 0 25 6 25 15 0 10 11 15 35 15 19 0 35
5 35 10 0 6 32 10 75 10 60 0 75 3 75 15 0 11 12 15 50 15 38 0 50 -4 50 -15z"/>
<path d="M22500 2445 c0 -11 -11 -15 -40 -15 -22 0 -40 -4 -40 -10 0 -5 -11
-10 -25 -10 -14 0 -25 -5 -25 -11 0 -17 -27 -39 -49 -39 -12 0 -21 -6 -21 -15
0 -8 -7 -15 -15 -15 -8 0 -15 -9 -15 -20 0 -11 -4 -20 -10 -20 -5 0 -10 -7
-10 -15 0 -8 -7 -15 -15 -15 -9 0 -15 -9 -15 -25 0 -14 -4 -25 -10 -25 -5 0
-10 -11 -10 -25 0 -16 -6 -25 -15 -25 -13 0 -15 -24 -15 -160 0 -136 2 -160
15 -160 10 0 15 -11 15 -35 0 -19 5 -35 10 -35 6 0 10 -11 10 -25 0 -16 6 -25
15 -25 8 0 15 -5 15 -11 0 -14 25 -39 39 -39 6 0 11 -5 11 -11 0 -14 25 -39
39 -39 6 0 11 -7 11 -15 0 -9 9 -15 25 -15 14 0 25 -4 25 -10 0 -5 16 -10 35
-10 19 0 35 -4 35 -10 0 -6 43 -10 110 -10 67 0 110 4 110 10 0 6 18 10 40 10
36 0 40 3 40 25 0 16 -6 25 -15 25 -8 0 -15 -7 -15 -15 0 -12 -17 -15 -95 -15
-78 0 -95 3 -95 15 0 11 -11 15 -40 15 -22 0 -40 5 -40 10 0 6 -11 10 -25 10
-14 0 -25 5 -25 11 0 14 -25 39 -39 39 -6 0 -11 5 -11 11 0 14 -25 39 -39 39
-6 0 -11 7 -11 15 0 8 -4 15 -10 15 -5 0 -10 16 -10 35 0 24 -5 35 -15 35 -11
0 -15 12 -15 50 0 28 -4 50 -10 50 -6 0 -10 32 -10 75 0 43 4 75 10 75 6 0 10
16 10 35 0 24 5 35 15 35 9 0 15 9 15 25 0 14 5 25 10 25 6 0 10 11 10 25 0
16 6 25 15 25 8 0 15 5 15 11 0 11 25 39 35 39 10 0 35 28 35 39 0 6 11 11 25
11 14 0 25 5 25 10 0 6 52 10 135 10 83 0 135 -4 135 -10 0 -5 11 -10 25 -10
22 0 25 4 25 35 0 33 -2 35 -35 35 -24 0 -35 5 -35 15 0 12 -19 15 -110 15
-91 0 -110 -3 -110 -15z"/>
<path d="M23730 2445 c0 -12 -13 -15 -60 -15 -33 0 -60 -4 -60 -10 0 -5 -18
-10 -40 -10 -22 0 -40 -5 -40 -11 0 -14 -25 -39 -39 -39 -6 0 -11 -5 -11 -10
0 -14 -46 -60 -60 -60 -5 0 -10 -11 -10 -25 0 -14 -4 -25 -10 -25 -5 0 -10
-18 -10 -40 0 -29 -4 -40 -15 -40 -11 0 -15 -12 -15 -50 0 -27 -4 -50 -10 -50
-6 0 -10 -30 -10 -70 0 -40 4 -70 10 -70 6 0 10 -22 10 -50 0 -38 4 -50 15
-50 9 0 15 -9 15 -25 0 -14 5 -25 10 -25 6 0 10 -11 10 -25 0 -16 6 -25 15
-25 8 0 15 -6 15 -13 0 -7 9 -19 20 -27 11 -8 20 -20 20 -27 0 -7 5 -13 11
-13 14 0 39 -25 39 -39 0 -6 11 -11 25 -11 14 0 25 -4 25 -10 0 -5 18 -10 40
-10 22 0 40 -4 40 -10 0 -6 35 -10 85 -10 50 0 85 4 85 10 0 6 23 10 50 10 28
0 50 5 50 10 0 6 11 10 25 10 14 0 25 5 25 11 0 17 27 39 49 39 12 0 21 6 21
15 0 8 7 15 15 15 9 0 15 9 15 25 0 14 5 25 10 25 6 0 10 11 10 25 0 16 6 25
15 25 9 0 15 9 15 25 0 14 5 25 10 25 6 0 10 63 10 170 0 107 -4 170 -10 170
-5 0 -10 18 -10 40 0 29 -4 40 -15 40 -9 0 -15 9 -15 21 0 19 -21 49 -35 49
-10 0 -35 28 -35 39 0 6 -5 11 -11 11 -14 0 -39 25 -39 39 0 6 -11 11 -25 11
-14 0 -25 5 -25 10 0 6 -22 10 -50 10 -38 0 -50 4 -50 15 0 11 -12 15 -50 15
-38 0 -50 -4 -50 -15z m80 -50 c0 -10 11 -15 35 -15 19 0 35 -4 35 -10 0 -5
11 -10 25 -10 14 0 25 -5 25 -11 0 -11 25 -39 35 -39 14 0 35 -30 35 -49 0
-12 6 -21 15 -21 9 0 15 -9 15 -25 0 -14 5 -25 10 -25 6 0 10 -22 10 -50 0
-38 4 -50 15 -50 12 0 15 -16 15 -85 0 -69 -3 -85 -15 -85 -11 0 -15 -12 -15
-50 0 -27 -4 -50 -10 -50 -5 0 -10 -11 -10 -25 0 -16 -6 -25 -15 -25 -9 0 -15
-9 -15 -25 0 -14 -4 -25 -10 -25 -5 0 -10 -7 -10 -15 0 -8 -5 -15 -11 -15 -11
0 -39 -25 -39 -35 0 -17 -32 -35 -64 -35 -25 0 -36 -4 -36 -15 0 -12 -13 -15
-60 -15 -47 0 -60 3 -60 15 0 11 -11 15 -40 15 -22 0 -40 5 -40 10 0 6 -11 10
-25 10 -14 0 -25 5 -25 11 0 14 -25 39 -39 39 -6 0 -11 7 -11 15 0 8 -4 15
-10 15 -5 0 -10 11 -10 25 0 16 -6 25 -15 25 -9 0 -15 9 -15 25 0 14 -4 25
-10 25 -6 0 -10 27 -10 60 0 33 -4 60 -10 60 -6 0 -10 32 -10 75 0 43 4 75 10
75 6 0 10 23 10 50 0 28 5 50 10 50 6 0 10 11 10 25 0 14 5 25 11 25 17 0 39
27 39 49 0 12 5 21 11 21 14 0 39 25 39 39 0 6 11 11 25 11 14 0 25 5 25 10 0
6 11 10 25 10 16 0 25 6 25 15 0 12 14 15 65 15 51 0 65 -3 65 -15z"/>
<path d="M24750 2445 c0 -11 -12 -15 -50 -15 -27 0 -50 -4 -50 -10 0 -5 -7
-10 -15 -10 -8 0 -15 -5 -15 -11 0 -17 -27 -39 -49 -39 -16 0 -21 -6 -21 -25
0 -22 -4 -25 -40 -25 l-40 0 0 46 c0 40 -16 74 -35 74 -4 0 -13 -6 -21 -14
-12 -12 -14 -77 -14 -380 0 -237 4 -366 10 -366 6 0 10 -22 10 -50 0 -47 2
-50 25 -50 24 0 25 2 25 75 0 60 3 75 15 75 13 0 15 33 15 235 0 150 4 235 10
235 6 0 10 16 10 35 0 24 5 35 15 35 8 0 15 7 15 15 0 8 5 15 10 15 6 0 10 9
10 20 0 11 7 20 15 20 8 0 15 7 15 15 0 9 9 15 25 15 14 0 25 5 25 10 0 6 16
10 35 10 24 0 35 5 35 15 0 9 9 15 25 15 16 0 25 -6 25 -15 0 -11 12 -15 50
-15 28 0 50 -4 50 -10 0 -5 11 -10 25 -10 16 0 25 -6 25 -15 0 -8 5 -15 10
-15 6 0 10 -9 10 -20 0 -11 7 -20 15 -20 9 0 15 -9 15 -25 0 -14 5 -25 10 -25
6 0 10 -32 10 -75 0 -60 3 -75 15 -75 11 0 15 -11 15 -40 0 -29 -4 -40 -15
-40 -13 0 -15 -23 -15 -145 0 -122 2 -145 15 -145 12 0 15 -15 15 -75 0 -73 1
-75 25 -75 24 0 25 3 25 60 0 33 4 60 10 60 6 0 10 82 10 225 0 143 -4 225
-10 225 -6 0 -10 32 -10 75 0 60 -3 75 -15 75 -8 0 -15 9 -15 20 0 11 -4 20
-10 20 -5 0 -10 7 -10 15 0 8 -5 15 -11 15 -14 0 -39 25 -39 39 0 6 -7 11 -15
11 -8 0 -15 5 -15 10 0 6 -16 10 -35 10 -24 0 -35 5 -35 15 0 12 -13 15 -60
15 -47 0 -60 -3 -60 -15z"/>
<path d="M27370 2445 c0 -11 -12 -15 -50 -15 -27 0 -50 -4 -50 -10 0 -5 -11
-10 -25 -10 -16 0 -25 -6 -25 -15 0 -9 -9 -15 -25 -15 -14 0 -25 -4 -25 -10 0
-5 -7 -10 -15 -10 -8 0 -15 -5 -15 -11 0 -14 -25 -39 -39 -39 -6 0 -11 -11
-11 -25 0 -14 -4 -25 -10 -25 -5 0 -10 -11 -10 -25 0 -16 -6 -25 -15 -25 -9 0
-15 -9 -15 -25 0 -14 -4 -25 -10 -25 -6 0 -10 -60 -10 -160 0 -100 4 -160 10
-160 6 0 10 -16 10 -35 0 -24 5 -35 15 -35 9 0 15 -9 15 -25 0 -14 5 -25 10
-25 6 0 10 -7 10 -15 0 -8 5 -15 11 -15 14 0 39 -25 39 -39 0 -6 5 -11 11 -11
14 0 39 -25 39 -39 0 -6 11 -11 25 -11 14 0 25 -4 25 -10 0 -5 18 -10 40 -10
22 0 40 -4 40 -10 0 -6 38 -10 95 -10 57 0 95 4 95 10 0 6 18 10 40 10 22 0
40 5 40 10 0 6 11 10 25 10 14 0 25 5 25 11 0 14 25 39 39 39 6 0 11 5 11 11
0 14 25 39 39 39 6 0 11 7 11 15 0 8 5 15 10 15 6 0 10 11 10 25 0 16 6 25 15
25 10 0 15 11 15 35 0 19 5 35 10 35 6 0 10 60 10 160 0 100 -4 160 -10 160
-5 0 -10 18 -10 40 0 29 -4 40 -15 40 -9 0 -15 9 -15 21 0 19 -21 49 -35 49
-10 0 -35 28 -35 39 0 6 -7 11 -15 11 -8 0 -15 5 -15 10 0 6 -11 10 -25 10
-16 0 -25 6 -25 15 0 9 -9 15 -25 15 -14 0 -25 5 -25 10 0 6 -16 10 -35 10
-24 0 -35 5 -35 15 0 12 -13 15 -60 15 -47 0 -60 -3 -60 -15z m90 -50 c0 -11
11 -15 40 -15 22 0 40 -4 40 -10 0 -5 11 -10 25 -10 14 0 25 -5 25 -11 0 -11
25 -39 35 -39 14 0 35 -30 35 -49 0 -12 6 -21 15 -21 9 0 15 -9 15 -25 0 -14
5 -25 10 -25 6 0 10 -18 10 -40 0 -29 4 -40 15 -40 12 0 15 -19 15 -110 0 -91
-3 -110 -15 -110 -10 0 -15 -11 -15 -35 0 -19 -4 -35 -10 -35 -5 0 -10 -18
-10 -40 0 -22 -5 -40 -11 -40 -14 0 -39 -25 -39 -39 0 -6 -5 -11 -11 -11 -14
0 -39 -25 -39 -39 0 -6 -11 -11 -25 -11 -14 0 -25 -4 -25 -10 0 -5 -18 -10
-40 -10 -29 0 -40 -4 -40 -15 0 -11 -12 -15 -45 -15 -33 0 -45 4 -45 15 0 11
-11 15 -40 15 -22 0 -40 5 -40 10 0 6 -11 10 -25 10 -14 0 -25 5 -25 11 0 14
-25 39 -39 39 -6 0 -11 7 -11 15 0 8 -4 15 -10 15 -5 0 -10 11 -10 25 0 16 -6
25 -15 25 -9 0 -15 9 -15 25 0 14 -4 25 -10 25 -5 0 -10 23 -10 50 0 38 -4 50
-15 50 -12 0 -15 14 -15 70 0 56 3 70 15 70 12 0 15 14 15 65 0 37 4 65 10 65
6 0 10 11 10 25 0 14 5 25 11 25 17 0 39 27 39 49 0 12 5 21 11 21 14 0 39 25
39 39 0 6 7 11 15 11 8 0 15 5 15 10 0 6 23 10 50 10 38 0 50 4 50 15 0 11 12
15 45 15 33 0 45 -4 45 -15z"/>
<path d="M28380 2445 c0 -10 -11 -15 -35 -15 -19 0 -35 -4 -35 -10 0 -5 -11
-10 -25 -10 -16 0 -25 -6 -25 -15 0 -8 -5 -15 -11 -15 -14 0 -39 -25 -39 -39
0 -6 -7 -11 -15 -11 -8 0 -15 -4 -15 -10 0 -5 -11 -10 -25 -10 -24 0 -25 3
-25 60 0 54 -2 60 -21 60 -49 0 -49 -1 -49 -419 0 -254 4 -391 10 -391 6 0 10
-11 10 -25 0 -20 5 -25 25 -25 l25 0 0 235 c0 202 2 235 15 235 12 0 15 15 15
75 0 43 4 75 10 75 6 0 10 16 10 35 0 24 5 35 15 35 9 0 15 9 15 21 0 22 22
49 39 49 6 0 11 5 11 11 0 20 29 39 59 39 21 0 31 5 31 15 0 11 11 15 40 15
29 0 40 -4 40 -15 0 -10 11 -15 35 -15 19 0 35 -4 35 -10 0 -5 11 -10 25 -10
16 0 25 -6 25 -15 0 -8 7 -15 15 -15 8 0 15 -9 15 -20 0 -11 5 -20 10 -20 6 0
10 -115 10 -325 0 -282 2 -325 15 -325 10 0 15 -11 15 -35 0 -29 4 -35 21 -35
48 0 49 9 49 324 0 256 2 296 15 296 10 0 15 11 15 35 0 19 5 35 10 35 6 0 10
7 10 15 0 8 7 15 15 15 8 0 15 9 15 20 0 11 5 20 10 20 6 0 10 7 10 15 0 9 9
15 25 15 14 0 25 5 25 10 0 6 11 10 25 10 16 0 25 6 25 15 0 11 12 15 50 15
38 0 50 -4 50 -15 0 -10 11 -15 35 -15 19 0 35 -4 35 -10 0 -5 7 -10 15 -10 8
0 15 -7 15 -15 0 -8 5 -15 10 -15 6 0 10 -9 10 -20 0 -11 7 -20 15 -20 11 0
15 -12 15 -50 0 -27 5 -50 10 -50 6 0 10 -37 10 -90 0 -53 -4 -90 -10 -90 -6
0 -10 -68 -10 -185 0 -117 4 -185 10 -185 6 0 10 -16 10 -35 0 -33 2 -35 35
-35 l35 0 0 335 c0 217 -4 335 -10 335 -5 0 -10 16 -10 35 0 19 -4 35 -10 35
-5 0 -10 11 -10 25 0 14 -5 25 -11 25 -14 0 -39 25 -39 39 0 6 -11 11 -25 11
-14 0 -25 5 -25 10 0 6 -18 10 -40 10 -29 0 -40 4 -40 15 0 10 -11 15 -35 15
-24 0 -35 -5 -35 -15 0 -11 -12 -15 -50 -15 -27 0 -50 -4 -50 -10 0 -5 -7 -10
-15 -10 -8 0 -15 -7 -15 -15 0 -8 -9 -15 -20 -15 -11 0 -20 -4 -20 -10 0 -5
-7 -10 -15 -10 -8 0 -15 -5 -15 -11 0 -13 -25 -39 -38 -39 -6 0 -13 -6 -16
-12 -5 -10 -7 -10 -12 0 -3 6 -10 12 -16 12 -16 0 -38 28 -38 49 0 12 -6 21
-15 21 -8 0 -15 7 -15 15 0 9 -9 15 -25 15 -14 0 -25 5 -25 10 0 6 -16 10 -35
10 -24 0 -35 5 -35 15 0 11 -12 15 -50 15 -38 0 -50 -4 -50 -15z"/>
<path d="M29840 2445 c0 -11 -12 -15 -50 -15 -27 0 -50 -4 -50 -10 0 -5 -11
-10 -25 -10 -16 0 -25 -6 -25 -15 0 -9 -9 -15 -21 -15 -22 0 -49 -22 -49 -39
0 -6 -5 -11 -11 -11 -17 0 -39 -27 -39 -49 0 -12 -6 -21 -15 -21 -9 0 -15 -9
-15 -25 0 -14 -4 -25 -10 -25 -5 0 -10 -16 -10 -35 0 -24 -5 -35 -15 -35 -13
0 -15 -23 -15 -150 0 -127 2 -150 15 -150 10 0 15 -11 15 -35 0 -19 5 -35 10
-35 6 0 10 -11 10 -25 0 -16 6 -25 15 -25 9 0 15 -9 15 -25 0 -14 5 -25 10
-25 6 0 10 -7 10 -15 0 -8 5 -15 11 -15 14 0 39 -25 39 -39 0 -6 11 -11 25
-11 14 0 25 -4 25 -10 0 -5 16 -10 35 -10 19 0 35 -4 35 -10 0 -6 45 -10 115
-10 70 0 115 4 115 10 0 6 16 10 35 10 19 0 35 5 35 10 0 6 7 10 15 10 8 0 15
7 15 15 0 11 -11 15 -40 15 -29 0 -40 -4 -40 -15 0 -12 -16 -15 -85 -15 -69 0
-85 3 -85 15 0 11 -11 15 -40 15 -22 0 -40 5 -40 10 0 6 -11 10 -25 10 -14 0
-25 6 -25 13 0 7 -9 19 -20 27 -11 8 -20 20 -20 27 0 7 -5 13 -11 13 -17 0
-39 27 -39 49 0 12 -6 21 -15 21 -11 0 -15 12 -15 50 0 28 -4 50 -10 50 -5 0
-10 16 -10 35 0 19 5 35 10 35 6 0 10 23 10 50 0 28 -4 50 -10 50 -5 0 -10 11
-10 25 0 14 5 25 10 25 6 0 10 23 10 50 0 38 4 50 15 50 9 0 15 9 15 25 0 14
5 25 10 25 6 0 10 11 10 25 0 14 5 25 11 25 11 0 39 25 39 35 0 17 32 35 64
35 25 0 36 4 36 15 0 12 13 15 60 15 47 0 60 -3 60 -15 0 -9 9 -15 25 -15 14
0 25 -4 25 -10 0 -5 11 -10 25 -10 16 0 25 -6 25 -15 0 -8 7 -15 15 -15 8 0
15 -9 15 -20 0 -11 5 -20 10 -20 6 0 10 -11 10 -25 0 -16 6 -25 15 -25 11 0
15 -11 15 -40 0 -22 5 -40 10 -40 16 0 12 -89 -4 -106 -11 -10 -43 -14 -125
-14 -92 0 -111 -3 -111 -15 0 -8 7 -15 15 -15 8 0 15 -4 15 -10 0 -6 55 -10
145 -10 l145 0 0 100 c0 60 -4 100 -10 100 -5 0 -10 16 -10 35 0 24 -5 35 -15
35 -8 0 -15 7 -15 15 0 8 -4 15 -10 15 -5 0 -10 9 -10 20 0 11 -4 20 -10 20
-5 0 -10 7 -10 15 0 8 -5 15 -11 15 -14 0 -39 25 -39 39 0 6 -11 11 -25 11
-14 0 -25 5 -25 10 0 6 -28 10 -65 10 -51 0 -65 3 -65 15 0 8 -4 15 -10 15 -5
0 -10 -7 -10 -15z"/>
<path d="M31300 2445 c0 -11 -12 -15 -50 -15 -27 0 -50 -4 -50 -10 0 -5 -11
-10 -25 -10 -16 0 -25 -6 -25 -15 0 -8 -7 -15 -15 -15 -8 0 -15 -4 -15 -10 0
-5 -11 -10 -25 -10 -14 0 -25 -5 -25 -11 0 -14 -25 -39 -39 -39 -6 0 -11 -11
-11 -25 0 -14 -4 -25 -10 -25 -5 0 -10 -11 -10 -25 0 -14 -4 -25 -10 -25 -5 0
-10 -16 -10 -35 0 -24 -5 -35 -15 -35 -13 0 -15 -23 -15 -150 0 -127 2 -150
15 -150 9 0 15 -9 15 -25 0 -14 5 -25 10 -25 6 0 10 -11 10 -25 0 -14 5 -25
10 -25 6 0 10 -11 10 -25 0 -14 5 -25 11 -25 14 0 39 -25 39 -39 0 -6 5 -11
11 -11 14 0 39 -25 39 -39 0 -6 11 -11 25 -11 14 0 25 -4 25 -10 0 -5 18 -10
40 -10 22 0 40 -4 40 -10 0 -6 47 -10 120 -10 73 0 120 4 120 10 0 6 18 10 40
10 36 0 40 3 40 25 0 23 -3 25 -50 25 -38 0 -50 -4 -50 -15 0 -10 -11 -15 -35
-15 -24 0 -35 5 -35 15 0 12 -15 15 -75 15 -43 0 -75 4 -75 10 0 6 -11 10 -25
10 -16 0 -25 6 -25 15 0 8 -5 15 -11 15 -14 0 -39 25 -39 39 0 6 -5 11 -11 11
-14 0 -39 25 -39 39 0 6 -7 11 -15 11 -10 0 -15 11 -15 35 0 19 -4 35 -10 35
-5 0 -10 18 -10 40 0 29 -4 40 -15 40 -12 0 -15 16 -15 85 0 69 3 85 15 85 11
0 15 12 15 50 0 28 5 50 10 50 6 0 10 11 10 25 0 14 5 25 11 25 14 0 39 25 39
39 0 6 6 11 13 11 7 0 19 9 27 20 8 11 20 20 27 20 7 0 13 7 13 15 0 9 9 15
25 15 14 0 25 5 25 10 0 6 60 10 160 10 136 0 160 2 160 15 0 8 -7 15 -15 15
-8 0 -15 5 -15 10 0 6 -11 10 -25 10 -16 0 -25 6 -25 15 0 12 -17 15 -95 15
-78 0 -95 -3 -95 -15z"/>
<path d="M32430 2445 c0 -10 -11 -15 -35 -15 -19 0 -35 -4 -35 -10 0 -5 -11
-10 -25 -10 -14 0 -25 -5 -25 -11 0 -14 -25 -39 -39 -39 -6 0 -11 -5 -11 -11
0 -11 -25 -39 -35 -39 -14 0 -35 -30 -35 -49 0 -12 -6 -21 -15 -21 -9 0 -15
-9 -15 -25 0 -14 -4 -25 -10 -25 -6 0 -10 -28 -10 -65 0 -51 -3 -65 -15 -65
-12 0 -15 -13 -15 -60 0 -47 3 -60 15 -60 12 0 15 -13 15 -60 0 -33 4 -60 10
-60 6 0 10 -11 10 -25 0 -16 6 -25 15 -25 9 0 15 -9 15 -25 0 -14 5 -25 10
-25 6 0 10 -7 10 -15 0 -8 7 -15 15 -15 9 0 15 -9 15 -25 0 -19 5 -25 21 -25
22 0 49 -22 49 -39 0 -6 11 -11 25 -11 14 0 25 -4 25 -10 0 -5 11 -10 25 -10
14 0 25 -4 25 -10 0 -6 43 -10 110 -10 67 0 110 4 110 10 0 6 18 10 40 10 22
0 40 5 40 10 0 6 11 10 25 10 14 0 25 6 25 13 0 7 9 19 20 27 11 8 20 20 20
27 0 7 5 13 11 13 14 0 39 25 39 39 0 6 7 11 15 11 9 0 15 9 15 25 0 14 5 25
10 25 6 0 10 16 10 35 0 24 5 35 15 35 13 0 15 24 15 160 0 136 -2 160 -15
160 -11 0 -15 11 -15 40 0 22 -4 40 -10 40 -5 0 -10 11 -10 25 0 14 -6 25 -13
25 -7 0 -19 9 -27 20 -8 11 -20 20 -27 20 -7 0 -13 6 -13 13 0 7 -9 19 -20 27
-11 8 -20 20 -20 27 0 7 -11 13 -25 13 -14 0 -25 5 -25 10 0 6 -18 10 -40 10
-29 0 -40 4 -40 15 0 12 -18 15 -100 15 -82 0 -100 -3 -100 -15z m236 -79 c8
-8 14 -19 14 -25 0 -6 11 -11 25 -11 14 0 25 -4 25 -10 0 -5 5 -10 11 -10 17
0 39 -27 39 -49 0 -12 5 -21 10 -21 6 0 10 -11 10 -25 0 -16 6 -25 15 -25 12
0 15 -15 15 -75 0 -43 4 -75 10 -75 6 0 10 -22 10 -50 0 -27 -4 -50 -10 -50
-6 0 -10 -27 -10 -60 0 -47 -3 -60 -15 -60 -9 0 -15 -9 -15 -25 0 -14 -4 -25
-10 -25 -5 0 -10 -11 -10 -25 0 -14 -4 -25 -10 -25 -5 0 -10 -7 -10 -15 0 -8
-5 -15 -11 -15 -14 0 -39 -25 -39 -39 0 -6 -11 -11 -25 -11 -14 0 -25 -4 -25
-10 0 -6 -48 -10 -125 -10 -77 0 -125 4 -125 10 0 6 -11 10 -25 10 -14 0 -25
5 -25 11 0 14 -25 39 -39 39 -6 0 -11 7 -11 15 0 8 -4 15 -10 15 -5 0 -10 11
-10 25 0 16 -6 25 -15 25 -9 0 -15 9 -15 25 0 14 -4 25 -10 25 -6 0 -10 30
-10 70 0 56 -3 70 -15 70 -11 0 -15 11 -15 40 0 29 4 40 15 40 12 0 15 13 15
60 0 33 4 60 10 60 6 0 10 11 10 25 0 16 6 25 15 25 9 0 15 9 15 25 0 14 5 25
10 25 6 0 10 11 10 25 0 14 5 25 11 25 14 0 39 25 39 39 0 6 11 11 25 11 14 0
25 5 25 10 0 17 239 13 256 -4z"/>
<path d="M20050 2395 c0 -19 5 -35 10 -35 6 0 10 -16 10 -35 0 -24 5 -35 15
-35 9 0 15 -9 15 -25 0 -14 5 -25 10 -25 6 0 10 -22 10 -50 0 -38 4 -50 15
-50 11 0 15 -11 15 -40 0 -22 5 -40 10 -40 6 0 10 -11 10 -25 0 -16 6 -25 15
-25 10 0 15 -11 15 -35 0 -19 5 -35 10 -35 6 0 10 -16 10 -35 0 -24 5 -35 15
-35 11 0 15 -11 15 -40 0 -22 5 -40 10 -40 6 0 10 -16 10 -35 0 -24 5 -35 15
-35 11 0 15 -12 15 -50 0 -27 5 -50 10 -50 6 0 10 -11 10 -25 0 -24 3 -25 60
-25 33 0 60 4 60 10 0 6 7 10 15 10 11 0 15 11 15 40 0 22 5 40 10 40 6 0 10
16 10 35 0 24 5 35 15 35 9 0 15 9 15 25 0 14 5 25 10 25 6 0 10 18 10 40 0
29 4 40 15 40 10 0 15 11 15 35 0 19 5 35 10 35 6 0 10 16 10 35 0 24 5 35 15
35 9 0 15 9 15 25 0 14 5 25 10 25 6 0 10 23 10 50 0 38 4 50 15 50 11 0 15
11 15 40 0 22 5 40 10 40 6 0 10 11 10 25 0 16 6 25 15 25 10 0 15 11 15 35 0
19 5 35 10 35 6 0 10 16 10 35 0 33 -2 35 -35 35 -19 0 -35 -4 -35 -10 0 -5
-7 -10 -15 -10 -11 0 -15 -11 -15 -40 0 -22 -4 -40 -10 -40 -5 0 -10 -16 -10
-35 0 -24 -5 -35 -15 -35 -10 0 -15 -11 -15 -35 0 -19 -4 -35 -10 -35 -5 0
-10 -18 -10 -40 0 -29 -4 -40 -15 -40 -10 0 -15 -11 -15 -35 0 -19 -4 -35 -10
-35 -5 0 -10 -18 -10 -40 0 -29 -4 -40 -15 -40 -10 0 -15 -11 -15 -35 0 -19
-4 -35 -10 -35 -5 0 -10 -11 -10 -25 0 -16 -6 -25 -15 -25 -11 0 -15 -12 -15
-50 0 -27 -4 -50 -10 -50 -5 0 -10 -11 -10 -25 0 -20 -5 -25 -25 -25 -20 0
-25 5 -25 25 0 14 -4 25 -10 25 -5 0 -10 11 -10 25 0 16 -6 25 -15 25 -11 0
-15 11 -15 40 0 22 -4 40 -10 40 -5 0 -10 16 -10 35 0 24 -5 35 -15 35 -10 0
-15 11 -15 35 0 19 -4 35 -10 35 -5 0 -10 23 -10 50 0 38 -4 50 -15 50 -11 0
-15 11 -15 40 0 22 -4 40 -10 40 -5 0 -10 16 -10 35 0 24 -5 35 -15 35 -10 0
-15 11 -15 35 0 19 -4 35 -10 35 -5 0 -10 18 -10 40 0 29 -4 40 -15 40 -8 0
-15 5 -15 10 0 6 -16 10 -35 10 -33 0 -35 -2 -35 -35z"/>
<path d="M20940 2025 c0 -263 3 -405 10 -405 6 0 10 -11 10 -25 0 -20 5 -25
25 -25 23 0 25 3 25 50 0 38 4 50 15 50 13 0 15 48 15 370 0 322 -2 370 -15
370 -8 0 -15 5 -15 10 0 6 -16 10 -35 10 l-35 0 0 -405z"/>
<path d="M23020 2014 c0 -444 0 -444 49 -444 18 0 21 6 21 50 0 28 5 50 10 50
6 0 10 129 10 366 0 401 1 394 -59 394 l-31 0 0 -416z"/>
<path d="M30460 2405 c0 -16 -6 -25 -15 -25 -13 0 -15 -51 -15 -395 0 -344 2
-395 15 -395 8 0 15 -4 15 -10 0 -5 11 -10 25 -10 24 0 25 3 25 60 0 33 4 60
10 60 6 0 10 85 10 235 0 202 2 235 15 235 11 0 15 11 15 40 0 22 5 40 10 40
6 0 10 9 10 21 0 19 21 49 35 49 10 0 35 28 35 39 0 6 7 11 15 11 8 0 15 5 15
10 0 6 16 10 35 10 31 0 35 3 35 25 0 22 -4 25 -35 25 -19 0 -35 -4 -35 -10 0
-5 -7 -10 -15 -10 -8 0 -15 -7 -15 -15 0 -9 -9 -15 -25 -15 -19 0 -25 -5 -25
-20 0 -19 -40 -70 -55 -70 -21 0 -35 34 -35 84 0 53 -1 56 -25 56 -20 0 -25
-5 -25 -25z"/>
<path d="M31790 2000 l0 -430 36 0 c66 0 64 -14 64 430 0 444 2 430 -64 430
l-36 0 0 -430z"/>
<path d="M4226 1413 c-10 -43 -20 -85 -22 -93 -3 -8 -14 -60 -26 -115 -11 -55
-24 -120 -30 -145 -5 -25 -13 -67 -18 -95 -6 -27 -21 -99 -35 -160 -14 -60
-34 -155 -45 -210 -11 -55 -23 -108 -26 -117 -4 -15 1 -18 35 -18 l39 0 22 97
c11 54 25 116 30 138 5 22 16 74 24 115 9 41 27 129 42 195 26 121 48 222 78
370 9 44 18 88 20 98 3 14 -3 17 -33 17 l-38 0 -17 -77z"/>
<path d="M5316 1478 c-3 -7 -7 -29 -10 -48 -6 -36 -10 -56 -41 -190 -19 -82
-44 -200 -69 -325 -23 -114 -54 -255 -80 -362 l-23 -93 37 0 c36 0 38 2 50 48
21 81 20 79 38 55 9 -12 25 -34 35 -48 51 -71 205 -92 307 -40 137 69 220 224
220 410 0 165 -51 247 -176 283 -54 16 -75 15 -139 -3 -33 -10 -71 -31 -100
-57 -25 -22 -48 -38 -51 -35 -5 5 6 69 26 157 4 19 13 58 18 85 6 28 17 78 26
113 l14 62 -39 0 c-23 0 -41 -5 -43 -12z m322 -412 c22 -20 44 -54 51 -75 39
-133 -30 -372 -127 -438 -68 -45 -164 -58 -222 -28 -133 69 -130 354 6 505 56
61 103 81 186 77 63 -2 70 -5 106 -41z"/>
<path d="M3695 1429 c-193 -43 -320 -136 -400 -293 -43 -85 -55 -130 -62 -239
-8 -122 31 -233 110 -316 91 -94 191 -134 341 -133 56 0 120 5 144 12 39 12
42 16 42 47 0 32 -1 33 -27 26 -16 -5 -84 -8 -153 -8 -116 0 -129 2 -181 27
-146 72 -214 213 -188 393 44 302 309 480 609 409 97 -23 103 -23 114 8 5 15
7 30 5 33 -3 3 -41 14 -84 25 -82 21 -199 25 -270 9z"/>
<path d="M6481 1373 c-6 -27 -25 -113 -42 -193 -17 -80 -35 -163 -40 -185 -5
-22 -14 -62 -19 -90 -5 -27 -14 -68 -19 -90 -27 -124 -63 -294 -68 -323 -6
-32 -5 -32 34 -32 l40 0 22 103 c30 137 49 223 62 273 l11 41 122 6 c114 5
213 28 250 58 6 5 26 20 44 35 125 100 128 320 5 397 -58 36 -119 47 -261 47
l-130 0 -11 -47z m311 -40 c70 -27 98 -72 98 -156 0 -83 -62 -167 -146 -200
-23 -9 -92 -19 -154 -23 l-113 -7 5 34 c6 37 30 158 54 259 8 36 17 75 20 88
4 21 9 22 99 22 65 0 108 -5 137 -17z"/>
<path d="M7304 1161 c-23 -10 -60 -38 -83 -62 l-41 -43 0 52 0 52 -40 0 c-38
0 -40 -1 -40 -32 0 -18 -7 -67 -16 -108 -8 -41 -20 -100 -26 -130 -18 -100
-70 -349 -83 -403 -7 -26 -6 -27 33 -27 38 0 40 1 50 43 12 51 27 122 42 202
33 170 67 266 115 323 41 49 81 65 152 65 l63 0 6 34 c4 19 4 37 1 40 -16 15
-95 12 -133 -6z"/>
<path d="M7755 1166 c-108 -26 -199 -96 -247 -191 -87 -168 -77 -343 27 -449
59 -61 102 -78 200 -78 130 1 236 59 303 166 146 234 82 506 -131 555 -59 13
-87 13 -152 -3z m191 -84 c69 -52 99 -169 76 -294 -32 -170 -143 -278 -284
-278 -98 0 -165 50 -193 144 -18 59 -19 93 -4 172 22 120 76 204 163 255 47
27 58 30 131 27 65 -3 86 -7 111 -26z"/>
<path d="M8495 1166 c-171 -54 -275 -211 -275 -413 0 -118 43 -209 123 -260
36 -24 53 -27 122 -28 91 0 130 13 193 63 24 19 46 32 49 28 8 -8 -26 -144
-49 -193 -11 -23 -37 -58 -58 -77 -84 -76 -263 -87 -387 -24 l-32 16 -7 -34
c-3 -19 -3 -38 0 -42 36 -35 259 -53 355 -28 137 35 197 114 245 324 40 172
40 171 76 347 5 22 13 60 19 85 14 61 41 180 47 208 4 19 0 22 -31 22 -29 0
-37 -5 -45 -26 -6 -14 -10 -34 -10 -44 0 -10 -5 -31 -11 -47 l-11 -28 -20 40
c-27 53 -46 73 -82 89 -87 39 -141 44 -211 22z m157 -65 c38 -14 83 -63 101
-109 33 -82 17 -238 -33 -327 -53 -94 -124 -139 -219 -139 -110 0 -168 48
-192 157 -14 67 -3 156 33 247 24 61 92 140 141 164 35 17 132 21 169 7z"/>
<path d="M9320 1160 c-25 -12 -65 -40 -89 -63 l-43 -42 6 53 7 52 -41 0 c-37
0 -40 -2 -40 -29 0 -16 -9 -73 -21 -127 -12 -55 -23 -110 -26 -124 -3 -14 -12
-59 -20 -100 -9 -41 -18 -86 -20 -100 -13 -67 -35 -177 -40 -197 -5 -21 -2
-23 35 -23 36 0 41 3 46 27 8 43 56 272 68 328 33 153 100 253 183 274 25 6
62 8 83 5 39 -6 39 -6 45 32 4 21 4 40 2 42 -15 15 -95 10 -135 -8z"/>
<path d="M9760 1169 c-90 -25 -183 -98 -228 -181 -59 -105 -79 -274 -46 -371
19 -58 81 -122 142 -149 38 -17 65 -21 147 -20 58 1 117 8 140 16 35 12 40 18
43 49 l3 35 -57 -19 c-69 -23 -187 -25 -236 -5 -82 35 -128 111 -128 212 l0
54 265 0 265 0 0 98 c0 63 -6 115 -16 145 -36 106 -172 169 -294 136z m185
-100 c28 -28 37 -46 45 -94 5 -33 7 -75 4 -92 l-6 -33 -209 0 c-117 0 -210 4
-214 9 -10 18 36 119 75 164 60 67 109 89 198 85 67 -3 74 -6 107 -39z"/>
<path d="M10395 1169 c-65 -15 -126 -51 -157 -93 -22 -31 -28 -50 -28 -93 0
-50 3 -57 43 -96 23 -24 69 -58 102 -76 71 -40 102 -66 121 -103 36 -70 -8
-158 -95 -187 -53 -18 -154 -14 -213 9 -57 22 -68 17 -68 -31 0 -22 6 -27 52
-38 28 -8 93 -14 143 -14 82 0 99 4 151 29 44 22 67 42 92 79 31 45 34 56 30
107 -6 75 -34 111 -152 188 -106 69 -126 92 -126 147 1 74 60 113 170 113 40
0 86 -6 107 -15 48 -20 49 -20 61 15 13 36 9 39 -72 56 -70 15 -104 16 -161 3z"/>
<path d="M11015 1166 c-78 -19 -126 -46 -180 -101 -111 -111 -156 -301 -104
-439 24 -65 90 -137 146 -161 56 -25 184 -22 246 4 79 34 135 81 175 145 68
110 92 218 73 325 -22 121 -96 205 -204 230 -59 13 -87 13 -152 -3z m193 -87
c47 -38 71 -88 78 -165 12 -133 -25 -245 -110 -328 -57 -58 -103 -76 -187 -76
-113 0 -199 98 -199 224 0 154 76 300 185 356 59 30 189 24 233 -11z"/>
<path d="M4465 1138 c-28 -125 -49 -221 -56 -258 -4 -25 -13 -67 -19 -95 -32
-141 -22 -221 37 -279 44 -44 80 -58 152 -58 78 -1 140 24 191 77 19 19 37 35
41 35 5 0 5 -23 2 -50 l-6 -50 35 0 c35 0 35 0 47 62 7 35 16 81 21 103 29
134 81 389 98 483 l9 52 -37 0 c-37 0 -37 0 -49 -57 -7 -32 -18 -85 -26 -118
-7 -33 -18 -87 -25 -120 -38 -190 -103 -300 -199 -341 -55 -23 -138 -18 -176
11 -59 44 -64 122 -20 320 17 74 27 126 43 215 6 30 13 63 17 73 6 14 1 17
-34 17 -34 0 -41 -4 -46 -22z"/>
</g>
</svg>
